<?xml version="1.0" encoding="UTF-8" standalone="no"?>
<svg
        xmlns="http://www.w3.org/2000/svg" version="1.1"
        viewBox="0 0 5355 2482"
        width="600"
        height="600"
        opacity=".8"
        fill="none"
        stroke="#b0bec5"
        stroke-linecap="round"
        stroke-linejoin="round"
        stroke-width="13">
<g transform="translate(320, 1719) scale(1 1) rotate(30 145 125)">
            
          </g>
<g transform="translate(192, 1934) scale(1 1) rotate(210 145 125)">
            <path d="M.037 249.12 144.037 0l.293.212L288.075 249.48l-.33.148L0 249.48" /><g ><path d="M195.877 249.589v-53.34M46.004 169.58l46.193 26.67M190.23 79.79l-46.193 26.67M92.197 196.25v53.269m51.84-143.059L97.905 79.826m97.972 116.424 46.133-26.635M92.197 196.25l51.84-29.93m0-59.86v59.86m51.84 29.93-51.84-29.93"/></g>
          </g>
<g transform="translate(257, 2046) scale(1 1) rotate(270 145 125)">
            <g ><path d="M.037 249.12 144.037 0l.293.212L288.075 249.48l-.33.148L0 249.48m212.284.109v-43.56M37.801 183.788l37.724 21.78M182.027 65.583l-37.724 21.78m-.431 162.191.165-83.234m-72-41.76 72 41.76m72.166-41.474-72.166 41.474M75.525 205.568v43.95m68.778-162.156-38.062-21.975M212.284 206.03l38.062-21.976M75.525 205.568l68.512-39.248m.266-78.958-.266 78.958m68.247 39.71-68.247-39.71"/></g>
          </g>
<g transform="translate(193, 2157) scale(1 1) rotate(330 145 125)">
            <path d="M.037 249.12 144.037 0l.293.212L288.075 249.48l-.33.148L0 249.48" /><path d="M0 249.48c96.025-53.878 192.05-52.865 288.075 0M144.037 0C142.684 110.099 93.795 192.753 0 249.48m288.075 0C193.403 193.259 146.267 109.593 144.037 0" />
          </g>
<g transform="translate(320, 2375) scale(1 1) rotate(150 145 125)">
            <g ><path d="M.037 249.12 144.037 0l.293.212L288.075 249.48l-.33.148L0 249.48m212.284.109v-43.56M37.801 183.788l37.724 21.78M182.027 65.583l-37.724 21.78m-.431 162.191.165-83.234m-72-41.76 72 41.76m72.166-41.474-72.166 41.474M75.525 205.568v43.95m68.778-162.156-38.062-21.975M212.284 206.03l38.062-21.976M75.525 205.568l68.512-39.248m.266-78.958-.266 78.958m68.247 39.71-68.247-39.71"/></g>
          </g>
<g transform="translate(575, 1281) scale(1 1) rotate(30 145 125)">
            
          </g>
<g transform="translate(447, 1496) scale(1 1) rotate(210 145 125)">
            <path d="M.037 249.12 144.037 0l.293.212L288.075 249.48l-.33.148L0 249.48" /><g ><path d="M195.877 249.589v-53.34M46.004 169.58l46.193 26.67M190.23 79.79l-46.193 26.67M92.197 196.25v53.269m51.84-143.059L97.905 79.826m97.972 116.424 46.133-26.635M92.197 196.25l51.84-29.93m0-59.86v59.86m51.84 29.93-51.84-29.93"/></g>
          </g>
<g transform="translate(512, 1608) scale(1 1) rotate(270 145 125)">
            <g ><path d="M.037 249.12 144.037 0l.293.212L288.075 249.48l-.33.148L0 249.48"/><path d="M162.874 177.196H125.2l-52.811 30.49m52.811-30.49 18.837-32.627V83.587m0 60.982 18.837 32.627 52.812 30.49"/><path d="m28.367 200.384 56.262.102-28.676 49.023M172.372 49.114l-28.22 48.673-28.116-49.345m115.337 201.02-28.042-48.776 56.792.323"/><path d="m24.047 207.584 48.342.102-24.02 41.819M168.297 41.773l-24.26 41.814-24.205-41.711m119.936 207.727-24.082-41.917 48.226-.107"/></g>
          </g>
<g transform="translate(448, 1719) scale(1 1) rotate(330 145 125)">
            <path d="M.037 249.12 144.037 0l.293.212L288.075 249.48l-.33.148L0 249.48" /><path d="M0 249.48c96.025-53.878 192.05-52.865 288.075 0M144.037 0C142.684 110.099 93.795 192.753 0 249.48m288.075 0C193.403 193.259 146.267 109.593 144.037 0" />
          </g>
<g transform="translate(575, 1937) scale(1 1) rotate(150 145 125)">
            <g ><path d="M.037 249.12 144.037 0l.293.212L288.075 249.48l-.33.148L0 249.48"/><path d="m144.037 166.32-60.776 40.222 60.62 37.764m.312 0 60.62-37.764-60.776-40.222"/><path d="m53.642 156.384 29.62 50.158-66.87 14.283 56.139 28.692m143.013 0 56.138-28.692-66.869-14.283 29.62-50.158M144.33.212l-.458 249.342"/></g>
          </g>
<g transform="translate(510, 2049) scale(1 1) rotate(90 145 125)">
            <g ><path d="M.037 249.12 144.037 0l.293.212L288.075 249.48l-.33.148L0 249.48"/><path d="m144.037 166.32-60.776 40.222 60.62 37.764m.312 0 60.62-37.764-60.776-40.222"/><path d="m53.642 156.384 29.62 50.158-66.87 14.283 56.139 28.692m143.013 0 56.138-28.692-66.869-14.283 29.62-50.158M144.33.212l-.458 249.342"/></g>
          </g>
<g transform="translate(575, 2157) scale(1 1) rotate(30 145 125)">
            <g ><path d="M.037 249.12 144.037 0l.293.212L288.075 249.48l-.33.148L0 249.48"/><path d="m144.037 166.32-60.776 40.222 60.62 37.764m.312 0 60.62-37.764-60.776-40.222"/><path d="m53.642 156.384 29.62 50.158-66.87 14.283 56.139 28.692m143.013 0 56.138-28.692-66.869-14.283 29.62-50.158M144.33.212l-.458 249.342"/></g>
          </g>
<g transform="translate(447, 2372) scale(1 1) rotate(210 145 125)">
            <g ><path d="M.037 249.12 144.037 0l.293.212L288.075 249.48l-.33.148L0 249.48m212.284.109v-43.56M37.801 183.788l37.724 21.78M182.027 65.583l-37.724 21.78m-.431 162.191.165-83.234m-72-41.76 72 41.76m72.166-41.474-72.166 41.474M75.525 205.568v43.95m68.778-162.156-38.062-21.975M212.284 206.03l38.062-21.976M75.525 205.568l68.512-39.248m.266-78.958-.266 78.958m68.247 39.71-68.247-39.71"/></g>
          </g>
<g transform="translate(703, 405) scale(1 1) rotate(330 145 125)">
            
          </g>
<g transform="translate(830, 623) scale(1 1) rotate(150 145 125)">
            <path d="M.037 249.12 144.037 0l.293.212L288.075 249.48l-.33.148L0 249.48M59.968 145.44l168.193.143m-24.006-41.629-84.22 145.588m48.055.024-83.973-145.73" />
          </g>
<g transform="translate(765, 735) scale(1 1) rotate(90 145 125)">
            <path d="M.037 249.12 144.037 0l.293.212L288.075 249.48l-.33.148L0 249.48" /><g ><path d="m47.899 166.32 96.138-79.127 96.082 79.127"/><path d="m192.107 83.061 20.456 122.822L95.996 249.53"/><path d="M192.107 249.579 75.512 205.883 95.996 83.111"/></g>
          </g>
<g transform="translate(830, 843) scale(1 1) rotate(30 145 125)">
            <path d="M.037 249.12 144.037 0l.293.212L288.075 249.48l-.33.148L0 249.48m78.472-45.355 65.565-37.805m.043-75.684-.043 75.684m65.523 37.879-65.523-37.879M91.666 90.603l104.828.067m39.302 68.153-52.472 90.751m-78.674-.04-52.356-90.818M99.99 76.203l88.2.067m55.915 96.962-44.159 76.35m-111.928-.057-44.043-76.418" />
          </g>
<g transform="translate(702, 1058) scale(1 1) rotate(210 145 125)">
            <g ><path d="M.037 249.12 144.037 0l.293.212L288.075 249.48l-.33.148L0 249.48"/><path d="m144.037 166.32-60.776 40.222 60.62 37.764m.312 0 60.62-37.764-60.776-40.222"/><path d="m53.642 156.384 29.62 50.158-66.87 14.283 56.139 28.692m143.013 0 56.138-28.692-66.869-14.283 29.62-50.158M144.33.212l-.458 249.342"/></g>
          </g>
<g transform="translate(767, 1170) scale(1 1) rotate(270 145 125)">
            <g ><path d="M.037 249.12 144.037 0l.293.212L288.075 249.48l-.33.148L0 249.48"/><path d="m144.037 166.32-60.776 40.222 60.62 37.764m.312 0 60.62-37.764-60.776-40.222"/><path d="m53.642 156.384 29.62 50.158-66.87 14.283 56.139 28.692m143.013 0 56.138-28.692-66.869-14.283 29.62-50.158M144.33.212l-.458 249.342"/></g>
          </g>
<g transform="translate(703, 1281) scale(1 1) rotate(330 145 125)">
            <g ><path d="M.037 249.12 144.037 0l.293.212L288.075 249.48l-.33.148L0 249.48"/><path d="m144.037 166.32-60.776 40.222 60.62 37.764m.312 0 60.62-37.764-60.776-40.222"/><path d="m53.642 156.384 29.62 50.158-66.87 14.283 56.139 28.692m143.013 0 56.138-28.692-66.869-14.283 29.62-50.158M144.33.212l-.458 249.342"/></g>
          </g>
<g transform="translate(830, 1499) scale(1 1) rotate(150 145 125)">
            <g ><path d="M.037 249.12 144.037 0l.293.212L288.075 249.48l-.33.148L0 249.48"/><path d="m144.037 166.32-60.776 40.222 60.62 37.764m.312 0 60.62-37.764-60.776-40.222"/><path d="m53.642 156.384 29.62 50.158-66.87 14.283 56.139 28.692m143.013 0 56.138-28.692-66.869-14.283 29.62-50.158M144.33.212l-.458 249.342"/></g>
          </g>
<g transform="translate(765, 1611) scale(1 1) rotate(90 145 125)">
            <g ><path d="M.037 249.12 144.037 0l.293.212L288.075 249.48l-.33.148L0 249.48"/><path d="m144.037 166.32-60.776 40.222 60.62 37.764m.312 0 60.62-37.764-60.776-40.222"/><path d="m53.642 156.384 29.62 50.158-66.87 14.283 56.139 28.692m143.013 0 56.138-28.692-66.869-14.283 29.62-50.158M144.33.212l-.458 249.342"/></g>
          </g>
<g transform="translate(830, 1719) scale(1 1) rotate(30 145 125)">
            <g ><path d="M.037 249.12 144.037 0l.293.212L288.075 249.48l-.33.148L0 249.48"/><path d="m144.037 166.32-60.776 40.222 60.62 37.764m.312 0 60.62-37.764-60.776-40.222"/><path d="m53.642 156.384 29.62 50.158-66.87 14.283 56.139 28.692m143.013 0 56.138-28.692-66.869-14.283 29.62-50.158M144.33.212l-.458 249.342"/></g>
          </g>
<g transform="translate(702, 1934) scale(1 1) rotate(210 145 125)">
            <g ><path d="M.037 249.12 144.037 0l.293.212L288.075 249.48l-.33.148L0 249.48m212.284.109v-43.56M37.801 183.788l37.724 21.78M182.027 65.583l-37.724 21.78m-.431 162.191.165-83.234m-72-41.76 72 41.76m72.166-41.474-72.166 41.474M75.525 205.568v43.95m68.778-162.156-38.062-21.975M212.284 206.03l38.062-21.976M75.525 205.568l68.512-39.248m.266-78.958-.266 78.958m68.247 39.71-68.247-39.71"/></g>
          </g>
<g transform="translate(767, 2046) scale(1 1) rotate(270 145 125)">
            
          </g>
<g transform="translate(1085, 185) scale(1 1) rotate(150 145 125)">
            
          </g>
<g transform="translate(1020, 297) scale(1 1) rotate(90 145 125)">
            <path d="M.037 249.12 144.037 0l.293.212L288.075 249.48l-.33.148L0 249.48" /><g ><path d="M195.877 249.589v-53.34M46.004 169.58l46.193 26.67M190.23 79.79l-46.193 26.67M92.197 196.25v53.269m51.84-143.059L97.905 79.826m97.972 116.424 46.133-26.635M92.197 196.25l51.84-29.93m0-59.86v59.86m51.84 29.93-51.84-29.93"/></g>
          </g>
<g transform="translate(1085, 405) scale(1 1) rotate(30 145 125)">
            <g ><path d="M.037 249.12 144.037 0l.293.212L288.075 249.48l-.33.148L0 249.48m212.284.109v-43.56M37.801 183.788l37.724 21.78M182.027 65.583l-37.724 21.78m-.431 162.191.165-83.234m-72-41.76 72 41.76m72.166-41.474-72.166 41.474M75.525 205.568v43.95m68.778-162.156-38.062-21.975M212.284 206.03l38.062-21.976M75.525 205.568l68.512-39.248m.266-78.958-.266 78.958m68.247 39.71-68.247-39.71"/></g>
          </g>
<g transform="translate(957, 620) scale(1 1) rotate(210 145 125)">
            <g ><path d="M.037 249.12 144.037 0l.293.212L288.075 249.48l-.33.148L0 249.48"/><path d="m144.037 166.32-60.776 40.222 60.62 37.764m.312 0 60.62-37.764-60.776-40.222"/><path d="m53.642 156.384 29.62 50.158-66.87 14.283 56.139 28.692m143.013 0 56.138-28.692-66.869-14.283 29.62-50.158M144.33.212l-.458 249.342"/></g>
          </g>
<g transform="translate(1022, 732) scale(1 1) rotate(270 145 125)">
            <g ><path d="M.037 249.12 144.037 0l.293.212L288.075 249.48l-.33.148L0 249.48"/><path d="m144.037 166.32-60.776 40.222 60.62 37.764m.312 0 60.62-37.764-60.776-40.222"/><path d="m53.642 156.384 29.62 50.158-66.87 14.283 56.139 28.692m143.013 0 56.138-28.692-66.869-14.283 29.62-50.158M144.33.212l-.458 249.342"/></g>
          </g>
<g transform="translate(958, 843) scale(1 1) rotate(330 145 125)">
            <g ><path d="M.037 249.12 144.037 0l.293.212L288.075 249.48l-.33.148L0 249.48"/><path d="m144.037 166.32-60.776 40.222 60.62 37.764m.312 0 60.62-37.764-60.776-40.222"/><path d="m53.642 156.384 29.62 50.158-66.87 14.283 56.139 28.692m143.013 0 56.138-28.692-66.869-14.283 29.62-50.158M144.33.212l-.458 249.342"/></g>
          </g>
<g transform="translate(1085, 1061) scale(1 1) rotate(150 145 125)">
            <path d="M.037 249.12 144.037 0l.293.212L288.075 249.48l-.33.148L0 249.48" /><path d="M0 249.48c96.025-53.878 192.05-52.865 288.075 0M144.037 0C142.684 110.099 93.795 192.753 0 249.48m288.075 0C193.403 193.259 146.267 109.593 144.037 0" />
          </g>
<g transform="translate(1020, 1173) scale(1 1) rotate(90 145 125)">
            <g ><path d="M.037 249.12 144.037 0l.293.212L288.075 249.48l-.33.148L0 249.48m212.284.109v-43.56M37.801 183.788l37.724 21.78M182.027 65.583l-37.724 21.78m-.431 162.191.165-83.234m-72-41.76 72 41.76m72.166-41.474-72.166 41.474M75.525 205.568v43.95m68.778-162.156-38.062-21.975M212.284 206.03l38.062-21.976M75.525 205.568l68.512-39.248m.266-78.958-.266 78.958m68.247 39.71-68.247-39.71"/></g>
          </g>
<g transform="translate(1085, 1281) scale(1 1) rotate(30 145 125)">
            <path d="M.037 249.12 144.037 0l.293.212L288.075 249.48l-.33.148L0 249.48" /><g ><path d="M195.877 249.589v-53.34M46.004 169.58l46.193 26.67M190.23 79.79l-46.193 26.67M92.197 196.25v53.269m51.84-143.059L97.905 79.826m97.972 116.424 46.133-26.635M92.197 196.25l51.84-29.93m0-59.86v59.86m51.84 29.93-51.84-29.93"/></g>
          </g>
<g transform="translate(957, 1496) scale(1 1) rotate(210 145 125)">
            
          </g>
<g transform="translate(1022, 1608) scale(1 1) rotate(270 145 125)">
            <path d="M.037 249.12 144.037 0l.293.212L288.075 249.48l-.33.148L0 249.48m78.472-45.355 65.565-37.805m.043-75.684-.043 75.684m65.523 37.879-65.523-37.879M91.666 90.603l104.828.067m39.302 68.153-52.472 90.751m-78.674-.04-52.356-90.818M99.99 76.203l88.2.067m55.915 96.962-44.159 76.35m-111.928-.057-44.043-76.418" />
          </g>
<g transform="translate(958, 1719) scale(1 1) rotate(330 145 125)">
            <g ><path d="M.037 249.12 144.037 0l.293.212L288.075 249.48l-.33.148L0 249.48"/><path d="m144.037 166.32-60.776 40.222 60.62 37.764m.312 0 60.62-37.764-60.776-40.222"/><path d="m53.642 156.384 29.62 50.158-66.87 14.283 56.139 28.692m143.013 0 56.138-28.692-66.869-14.283 29.62-50.158M144.33.212l-.458 249.342"/></g>
          </g>
<g transform="translate(1085, 1937) scale(1 1) rotate(150 145 125)">
            <g ><path d="M.037 249.12 144.037 0l.293.212L288.075 249.48l-.33.148L0 249.48"/><path d="M162.874 177.196H125.2l-52.811 30.49m52.811-30.49 18.837-32.627V83.587m0 60.982 18.837 32.627 52.812 30.49"/><path d="m28.367 200.384 56.262.102-28.676 49.023M172.372 49.114l-28.22 48.673-28.116-49.345m115.337 201.02-28.042-48.776 56.792.323"/><path d="m24.047 207.584 48.342.102-24.02 41.819M168.297 41.773l-24.26 41.814-24.205-41.711m119.936 207.727-24.082-41.917 48.226-.107"/></g>
          </g>
<g transform="translate(1020, 2049) scale(1 1) rotate(90 145 125)">
            
          </g>
<g transform="translate(1340, -33) scale(1 1) rotate(30 145 125)">
            
          </g>
<g transform="translate(1212, 182) scale(1 1) rotate(210 145 125)">
            <path d="M.037 249.12 144.037 0l.293.212L288.075 249.48l-.33.148L0 249.48m78.472-45.355 65.565-37.805m.043-75.684-.043 75.684m65.523 37.879-65.523-37.879M91.666 90.603l104.828.067m39.302 68.153-52.472 90.751m-78.674-.04-52.356-90.818M99.99 76.203l88.2.067m55.915 96.962-44.159 76.35m-111.928-.057-44.043-76.418" />
          </g>
<g transform="translate(1277, 294) scale(1 1) rotate(270 145 125)">
            <g ><path d="M.037 249.12 144.037 0l.293.212L288.075 249.48l-.33.148L0 249.48"/><path d="m144.037 166.32-60.776 40.222 60.62 37.764m.312 0 60.62-37.764-60.776-40.222"/><path d="m53.642 156.384 29.62 50.158-66.87 14.283 56.139 28.692m143.013 0 56.138-28.692-66.869-14.283 29.62-50.158M144.33.212l-.458 249.342"/></g>
          </g>
<g transform="translate(1213, 405) scale(1 1) rotate(330 145 125)">
            <g ><path d="M.037 249.12 144.037 0l.293.212L288.075 249.48l-.33.148L0 249.48"/><path d="m144.037 166.32-60.776 40.222 60.62 37.764m.312 0 60.62-37.764-60.776-40.222"/><path d="m53.642 156.384 29.62 50.158-66.87 14.283 56.139 28.692m143.013 0 56.138-28.692-66.869-14.283 29.62-50.158M144.33.212l-.458 249.342"/></g>
          </g>
<g transform="translate(1340, 623) scale(1 1) rotate(150 145 125)">
            <g ><path d="M.037 249.12 144.037 0l.293.212L288.075 249.48l-.33.148L0 249.48"/><path d="m144.037 166.32-60.776 40.222 60.62 37.764m.312 0 60.62-37.764-60.776-40.222"/><path d="m53.642 156.384 29.62 50.158-66.87 14.283 56.139 28.692m143.013 0 56.138-28.692-66.869-14.283 29.62-50.158M144.33.212l-.458 249.342"/></g>
          </g>
<g transform="translate(1275, 735) scale(1 1) rotate(90 145 125)">
            <path d="M.037 249.12 144.037 0l.293.212L288.075 249.48l-.33.148L0 249.48" /><path d="M0 249.48c96.025-53.878 192.05-52.865 288.075 0M144.037 0C142.684 110.099 93.795 192.753 0 249.48m288.075 0C193.403 193.259 146.267 109.593 144.037 0" />
          </g>
<g transform="translate(1340, 843) scale(1 1) rotate(30 145 125)">
            <g ><path d="M.037 249.12 144.037 0l.293.212L288.075 249.48l-.33.148L0 249.48"/><path d="M162.874 177.196H125.2l-52.811 30.49m52.811-30.49 18.837-32.627V83.587m0 60.982 18.837 32.627 52.812 30.49"/><path d="m28.367 200.384 56.262.102-28.676 49.023M172.372 49.114l-28.22 48.673-28.116-49.345m115.337 201.02-28.042-48.776 56.792.323"/><path d="m24.047 207.584 48.342.102-24.02 41.819M168.297 41.773l-24.26 41.814-24.205-41.711m119.936 207.727-24.082-41.917 48.226-.107"/></g>
          </g>
<g transform="translate(1212, 1058) scale(1 1) rotate(210 145 125)">
            <path d="M.037 249.12 144.037 0l.293.212L288.075 249.48l-.33.148L0 249.48M59.968 145.44l168.193.143m-24.006-41.629-84.22 145.588m48.055.024-83.973-145.73" />
          </g>
<g transform="translate(1277, 1170) scale(1 1) rotate(270 145 125)">
            
          </g>
<g transform="translate(1340, 1499) scale(1 1) rotate(150 145 125)">
            
          </g>
<g transform="translate(1275, 1611) scale(1 1) rotate(90 145 125)">
            <path d="M.037 249.12 144.037 0l.293.212L288.075 249.48l-.33.148L0 249.48m78.472-45.355 65.565-37.805m.043-75.684-.043 75.684m65.523 37.879-65.523-37.879M91.666 90.603l104.828.067m39.302 68.153-52.472 90.751m-78.674-.04-52.356-90.818M99.99 76.203l88.2.067m55.915 96.962-44.159 76.35m-111.928-.057-44.043-76.418" />
          </g>
<g transform="translate(1340, 1719) scale(1 1) rotate(30 145 125)">
            <g ><path d="M.037 249.12 144.037 0l.293.212L288.075 249.48l-.33.148L0 249.48"/><path d="m144.037 166.32-60.776 40.222 60.62 37.764m.312 0 60.62-37.764-60.776-40.222"/><path d="m53.642 156.384 29.62 50.158-66.87 14.283 56.139 28.692m143.013 0 56.138-28.692-66.869-14.283 29.62-50.158M144.33.212l-.458 249.342"/></g>
          </g>
<g transform="translate(1212, 1934) scale(1 1) rotate(210 145 125)">
            <g ><path d="M.037 249.12 144.037 0l.293.212L288.075 249.48l-.33.148L0 249.48"/><path d="M162.874 177.196H125.2l-52.811 30.49m52.811-30.49 18.837-32.627V83.587m0 60.982 18.837 32.627 52.812 30.49"/><path d="m28.367 200.384 56.262.102-28.676 49.023M172.372 49.114l-28.22 48.673-28.116-49.345m115.337 201.02-28.042-48.776 56.792.323"/><path d="m24.047 207.584 48.342.102-24.02 41.819M168.297 41.773l-24.26 41.814-24.205-41.711m119.936 207.727-24.082-41.917 48.226-.107"/></g>
          </g>
<g transform="translate(1277, 2046) scale(1 1) rotate(270 145 125)">
            
          </g>
<g transform="translate(1595, 185) scale(1 1) rotate(150 145 125)">
            
          </g>
<g transform="translate(1530, 297) scale(1 1) rotate(90 145 125)">
            <path d="M.037 249.12 144.037 0l.293.212L288.075 249.48l-.33.148L0 249.48" /><g ><path d="M195.877 249.589v-53.34M46.004 169.58l46.193 26.67M190.23 79.79l-46.193 26.67M92.197 196.25v53.269m51.84-143.059L97.905 79.826m97.972 116.424 46.133-26.635M92.197 196.25l51.84-29.93m0-59.86v59.86m51.84 29.93-51.84-29.93"/></g>
          </g>
<g transform="translate(1595, 405) scale(1 1) rotate(30 145 125)">
            <g ><path d="M.037 249.12 144.037 0l.293.212L288.075 249.48l-.33.148L0 249.48m212.284.109v-43.56M37.801 183.788l37.724 21.78M182.027 65.583l-37.724 21.78m-.431 162.191.165-83.234m-72-41.76 72 41.76m72.166-41.474-72.166 41.474M75.525 205.568v43.95m68.778-162.156-38.062-21.975M212.284 206.03l38.062-21.976M75.525 205.568l68.512-39.248m.266-78.958-.266 78.958m68.247 39.71-68.247-39.71"/></g>
          </g>
<g transform="translate(1467, 620) scale(1 1) rotate(210 145 125)">
            <path d="M.037 249.12 144.037 0l.293.212L288.075 249.48l-.33.148L0 249.48" /><path d="M0 249.48c96.025-53.878 192.05-52.865 288.075 0M144.037 0C142.684 110.099 93.795 192.753 0 249.48m288.075 0C193.403 193.259 146.267 109.593 144.037 0" />
          </g>
<g transform="translate(1532, 732) scale(1 1) rotate(270 145 125)">
            <g ><path d="M.037 249.12 144.037 0l.293.212L288.075 249.48l-.33.148L0 249.48"/><path d="m144.037 166.32-60.776 40.222 60.62 37.764m.312 0 60.62-37.764-60.776-40.222"/><path d="m53.642 156.384 29.62 50.158-66.87 14.283 56.139 28.692m143.013 0 56.138-28.692-66.869-14.283 29.62-50.158M144.33.212l-.458 249.342"/></g>
          </g>
<g transform="translate(1468, 843) scale(1 1) rotate(330 145 125)">
            <g ><path d="M.037 249.12 144.037 0l.293.212L288.075 249.48l-.33.148L0 249.48"/><path d="m144.037 166.32-60.776 40.222 60.62 37.764m.312 0 60.62-37.764-60.776-40.222"/><path d="m53.642 156.384 29.62 50.158-66.87 14.283 56.139 28.692m143.013 0 56.138-28.692-66.869-14.283 29.62-50.158M144.33.212l-.458 249.342"/></g>
          </g>
<g transform="translate(1595, 1061) scale(1 1) rotate(150 145 125)">
            <g ><path d="M.037 249.12 144.037 0l.293.212L288.075 249.48l-.33.148L0 249.48"/><path d="m144.037 166.32-60.776 40.222 60.62 37.764m.312 0 60.62-37.764-60.776-40.222"/><path d="m53.642 156.384 29.62 50.158-66.87 14.283 56.139 28.692m143.013 0 56.138-28.692-66.869-14.283 29.62-50.158M144.33.212l-.458 249.342"/></g>
          </g>
<g transform="translate(1530, 1173) scale(1 1) rotate(90 145 125)">
            <path d="M.037 249.12 144.037 0l.293.212L288.075 249.48l-.33.148L0 249.48" /><path d="M0 249.48c96.025-53.878 192.05-52.865 288.075 0M144.037 0C142.684 110.099 93.795 192.753 0 249.48m288.075 0C193.403 193.259 146.267 109.593 144.037 0" />
          </g>
<g transform="translate(1595, 1281) scale(1 1) rotate(30 145 125)">
            <path d="M.037 249.12 144.037 0l.293.212L288.075 249.48l-.33.148L0 249.48" /><g ><path d="m47.899 166.32 96.138-79.127 96.082 79.127"/><path d="m192.107 83.061 20.456 122.822L95.996 249.53"/><path d="M192.107 249.579 75.512 205.883 95.996 83.111"/></g>
          </g>
<g transform="translate(1467, 1496) scale(1 1) rotate(210 145 125)">
            <path d="M.037 249.12 144.037 0l.293.212L288.075 249.48l-.33.148L0 249.48M59.968 145.44l168.193.143m-24.006-41.629-84.22 145.588m48.055.024-83.973-145.73" />
          </g>
<g transform="translate(1532, 1608) scale(1 1) rotate(270 145 125)">
            <path d="M.037 249.12 144.037 0l.293.212L288.075 249.48l-.33.148L0 249.48m78.472-45.355 65.565-37.805m.043-75.684-.043 75.684m65.523 37.879-65.523-37.879M91.666 90.603l104.828.067m39.302 68.153-52.472 90.751m-78.674-.04-52.356-90.818M99.99 76.203l88.2.067m55.915 96.962-44.159 76.35m-111.928-.057-44.043-76.418" />
          </g>
<g transform="translate(1468, 1719) scale(1 1) rotate(330 145 125)">
            <g ><path d="M.037 249.12 144.037 0l.293.212L288.075 249.48l-.33.148L0 249.48"/><path d="m144.037 166.32-60.776 40.222 60.62 37.764m.312 0 60.62-37.764-60.776-40.222"/><path d="m53.642 156.384 29.62 50.158-66.87 14.283 56.139 28.692m143.013 0 56.138-28.692-66.869-14.283 29.62-50.158M144.33.212l-.458 249.342"/></g>
          </g>
<g transform="translate(1595, 1937) scale(1 1) rotate(150 145 125)">
            <g ><path d="M.037 249.12 144.037 0l.293.212L288.075 249.48l-.33.148L0 249.48"/><path d="M162.874 177.196H125.2l-52.811 30.49m52.811-30.49 18.837-32.627V83.587m0 60.982 18.837 32.627 52.812 30.49"/><path d="m28.367 200.384 56.262.102-28.676 49.023M172.372 49.114l-28.22 48.673-28.116-49.345m115.337 201.02-28.042-48.776 56.792.323"/><path d="m24.047 207.584 48.342.102-24.02 41.819M168.297 41.773l-24.26 41.814-24.205-41.711m119.936 207.727-24.082-41.917 48.226-.107"/></g>
          </g>
<g transform="translate(1530, 2049) scale(1 1) rotate(90 145 125)">
            
          </g>
<g transform="translate(1850, 843) scale(1 1) rotate(30 145 125)">
            
          </g>
<g transform="translate(1722, 1058) scale(1 1) rotate(210 145 125)">
            <path d="M.037 249.12 144.037 0l.293.212L288.075 249.48l-.33.148L0 249.48M59.968 145.44l168.193.143m-24.006-41.629-84.22 145.588m48.055.024-83.973-145.73" />
          </g>
<g transform="translate(1787, 1170) scale(1 1) rotate(270 145 125)">
            <path d="M.037 249.12 144.037 0l.293.212L288.075 249.48l-.33.148L0 249.48" /><g ><path d="m47.899 166.32 96.138-79.127 96.082 79.127"/><path d="m192.107 83.061 20.456 122.822L95.996 249.53"/><path d="M192.107 249.579 75.512 205.883 95.996 83.111"/></g>
          </g>
<g transform="translate(1723, 1281) scale(1 1) rotate(330 145 125)">
            <path d="M.037 249.12 144.037 0l.293.212L288.075 249.48l-.33.148L0 249.48m78.472-45.355 65.565-37.805m.043-75.684-.043 75.684m65.523 37.879-65.523-37.879M91.666 90.603l104.828.067m39.302 68.153-52.472 90.751m-78.674-.04-52.356-90.818M99.99 76.203l88.2.067m55.915 96.962-44.159 76.35m-111.928-.057-44.043-76.418" />
          </g>
<g transform="translate(1850, 1499) scale(1 1) rotate(150 145 125)">
            <g ><path d="M.037 249.12 144.037 0l.293.212L288.075 249.48l-.33.148L0 249.48"/><path d="m144.037 166.32-60.776 40.222 60.62 37.764m.312 0 60.62-37.764-60.776-40.222"/><path d="m53.642 156.384 29.62 50.158-66.87 14.283 56.139 28.692m143.013 0 56.138-28.692-66.869-14.283 29.62-50.158M144.33.212l-.458 249.342"/></g>
          </g>
<g transform="translate(1785, 1611) scale(1 1) rotate(90 145 125)">
            <g ><path d="M.037 249.12 144.037 0l.293.212L288.075 249.48l-.33.148L0 249.48"/><path d="m144.037 166.32-60.776 40.222 60.62 37.764m.312 0 60.62-37.764-60.776-40.222"/><path d="m53.642 156.384 29.62 50.158-66.87 14.283 56.139 28.692m143.013 0 56.138-28.692-66.869-14.283 29.62-50.158M144.33.212l-.458 249.342"/></g>
          </g>
<g transform="translate(1850, 1719) scale(1 1) rotate(30 145 125)">
            <g ><path d="M.037 249.12 144.037 0l.293.212L288.075 249.48l-.33.148L0 249.48"/><path d="m144.037 166.32-60.776 40.222 60.62 37.764m.312 0 60.62-37.764-60.776-40.222"/><path d="m53.642 156.384 29.62 50.158-66.87 14.283 56.139 28.692m143.013 0 56.138-28.692-66.869-14.283 29.62-50.158M144.33.212l-.458 249.342"/></g>
          </g>
<g transform="translate(1722, 1934) scale(1 1) rotate(210 145 125)">
            <g ><path d="M.037 249.12 144.037 0l.293.212L288.075 249.48l-.33.148L0 249.48"/><path d="m144.037 166.32-60.776 40.222 60.62 37.764m.312 0 60.62-37.764-60.776-40.222"/><path d="m53.642 156.384 29.62 50.158-66.87 14.283 56.139 28.692m143.013 0 56.138-28.692-66.869-14.283 29.62-50.158M144.33.212l-.458 249.342"/></g>
          </g>
<g transform="translate(1787, 2046) scale(1 1) rotate(270 145 125)">
            <g ><path d="M.037 249.12 144.037 0l.293.212L288.075 249.48l-.33.148L0 249.48m212.284.109v-43.56M37.801 183.788l37.724 21.78M182.027 65.583l-37.724 21.78m-.431 162.191.165-83.234m-72-41.76 72 41.76m72.166-41.474-72.166 41.474M75.525 205.568v43.95m68.778-162.156-38.062-21.975M212.284 206.03l38.062-21.976M75.525 205.568l68.512-39.248m.266-78.958-.266 78.958m68.247 39.71-68.247-39.71"/></g>
          </g>
<g transform="translate(1723, 2157) scale(1 1) rotate(330 145 125)">
            <path d="M.037 249.12 144.037 0l.293.212L288.075 249.48l-.33.148L0 249.48" /><g ><path d="M195.877 249.589v-53.34M46.004 169.58l46.193 26.67M190.23 79.79l-46.193 26.67M92.197 196.25v53.269m51.84-143.059L97.905 79.826m97.972 116.424 46.133-26.635M92.197 196.25l51.84-29.93m0-59.86v59.86m51.84 29.93-51.84-29.93"/></g>
          </g>
<g transform="translate(1850, 2375) scale(1 1) rotate(150 145 125)">
            
          </g>
<g transform="translate(2105, 1281) scale(1 1) rotate(30 145 125)">
            
          </g>
<g transform="translate(1977, 1496) scale(1 1) rotate(210 145 125)">
            <path d="M.037 249.12 144.037 0l.293.212L288.075 249.48l-.33.148L0 249.48M59.968 145.44l168.193.143m-24.006-41.629-84.22 145.588m48.055.024-83.973-145.73" />
          </g>
<g transform="translate(2042, 1608) scale(1 1) rotate(270 145 125)">
            <g ><path d="M.037 249.12 144.037 0l.293.212L288.075 249.48l-.33.148L0 249.48"/><path d="M162.874 177.196H125.2l-52.811 30.49m52.811-30.49 18.837-32.627V83.587m0 60.982 18.837 32.627 52.812 30.49"/><path d="m28.367 200.384 56.262.102-28.676 49.023M172.372 49.114l-28.22 48.673-28.116-49.345m115.337 201.02-28.042-48.776 56.792.323"/><path d="m24.047 207.584 48.342.102-24.02 41.819M168.297 41.773l-24.26 41.814-24.205-41.711m119.936 207.727-24.082-41.917 48.226-.107"/></g>
          </g>
<g transform="translate(1978, 1719) scale(1 1) rotate(330 145 125)">
            <path d="M.037 249.12 144.037 0l.293.212L288.075 249.48l-.33.148L0 249.48m78.472-45.355 65.565-37.805m.043-75.684-.043 75.684m65.523 37.879-65.523-37.879M91.666 90.603l104.828.067m39.302 68.153-52.472 90.751m-78.674-.04-52.356-90.818M99.99 76.203l88.2.067m55.915 96.962-44.159 76.35m-111.928-.057-44.043-76.418" />
          </g>
<g transform="translate(2105, 1937) scale(1 1) rotate(150 145 125)">
            <g ><path d="M.037 249.12 144.037 0l.293.212L288.075 249.48l-.33.148L0 249.48"/><path d="m144.037 166.32-60.776 40.222 60.62 37.764m.312 0 60.62-37.764-60.776-40.222"/><path d="m53.642 156.384 29.62 50.158-66.87 14.283 56.139 28.692m143.013 0 56.138-28.692-66.869-14.283 29.62-50.158M144.33.212l-.458 249.342"/></g>
          </g>
<g transform="translate(2040, 2049) scale(1 1) rotate(90 145 125)">
            <g ><path d="M.037 249.12 144.037 0l.293.212L288.075 249.48l-.33.148L0 249.48"/><path d="m144.037 166.32-60.776 40.222 60.62 37.764m.312 0 60.62-37.764-60.776-40.222"/><path d="m53.642 156.384 29.62 50.158-66.87 14.283 56.139 28.692m143.013 0 56.138-28.692-66.869-14.283 29.62-50.158M144.33.212l-.458 249.342"/></g>
          </g>
<g transform="translate(2105, 2157) scale(1 1) rotate(30 145 125)">
            <g ><path d="M.037 249.12 144.037 0l.293.212L288.075 249.48l-.33.148L0 249.48"/><path d="m144.037 166.32-60.776 40.222 60.62 37.764m.312 0 60.62-37.764-60.776-40.222"/><path d="m53.642 156.384 29.62 50.158-66.87 14.283 56.139 28.692m143.013 0 56.138-28.692-66.869-14.283 29.62-50.158M144.33.212l-.458 249.342"/></g>
          </g>
<g transform="translate(1977, 2372) scale(1 1) rotate(210 145 125)">
            <path d="M.037 249.12 144.037 0l.293.212L288.075 249.48l-.33.148L0 249.48m78.472-45.355 65.565-37.805m.043-75.684-.043 75.684m65.523 37.879-65.523-37.879M91.666 90.603l104.828.067m39.302 68.153-52.472 90.751m-78.674-.04-52.356-90.818M99.99 76.203l88.2.067m55.915 96.962-44.159 76.35m-111.928-.057-44.043-76.418" />
          </g>
<g transform="translate(2233, 2157) scale(1 1) rotate(330 145 125)">
            
          </g>
<g transform="translate(2360, 2375) scale(1 1) rotate(150 145 125)">
            
          </g>
<g transform="translate(3380, -33) scale(1 1) rotate(30 145 125)">
            
          </g>
<g transform="translate(3252, 182) scale(1 1) rotate(210 145 125)">
            <path d="M.037 249.12 144.037 0l.293.212L288.075 249.48l-.33.148L0 249.48" /><g ><path d="M195.877 249.589v-53.34M46.004 169.58l46.193 26.67M190.23 79.79l-46.193 26.67M92.197 196.25v53.269m51.84-143.059L97.905 79.826m97.972 116.424 46.133-26.635M92.197 196.25l51.84-29.93m0-59.86v59.86m51.84 29.93-51.84-29.93"/></g>
          </g>
<g transform="translate(3317, 294) scale(1 1) rotate(270 145 125)">
            <g ><path d="M.037 249.12 144.037 0l.293.212L288.075 249.48l-.33.148L0 249.48"/><path d="M162.874 177.196H125.2l-52.811 30.49m52.811-30.49 18.837-32.627V83.587m0 60.982 18.837 32.627 52.812 30.49"/><path d="m28.367 200.384 56.262.102-28.676 49.023M172.372 49.114l-28.22 48.673-28.116-49.345m115.337 201.02-28.042-48.776 56.792.323"/><path d="m24.047 207.584 48.342.102-24.02 41.819M168.297 41.773l-24.26 41.814-24.205-41.711m119.936 207.727-24.082-41.917 48.226-.107"/></g>
          </g>
<g transform="translate(3253, 405) scale(1 1) rotate(330 145 125)">
            <g ><path d="M.037 249.12 144.037 0l.293.212L288.075 249.48l-.33.148L0 249.48"/><path d="M162.874 177.196H125.2l-52.811 30.49m52.811-30.49 18.837-32.627V83.587m0 60.982 18.837 32.627 52.812 30.49"/><path d="m28.367 200.384 56.262.102-28.676 49.023M172.372 49.114l-28.22 48.673-28.116-49.345m115.337 201.02-28.042-48.776 56.792.323"/><path d="m24.047 207.584 48.342.102-24.02 41.819M168.297 41.773l-24.26 41.814-24.205-41.711m119.936 207.727-24.082-41.917 48.226-.107"/></g>
          </g>
<g transform="translate(3380, 623) scale(1 1) rotate(150 145 125)">
            <g ><path d="M.037 249.12 144.037 0l.293.212L288.075 249.48l-.33.148L0 249.48"/><path d="M162.874 177.196H125.2l-52.811 30.49m52.811-30.49 18.837-32.627V83.587m0 60.982 18.837 32.627 52.812 30.49"/><path d="m28.367 200.384 56.262.102-28.676 49.023M172.372 49.114l-28.22 48.673-28.116-49.345m115.337 201.02-28.042-48.776 56.792.323"/><path d="m24.047 207.584 48.342.102-24.02 41.819M168.297 41.773l-24.26 41.814-24.205-41.711m119.936 207.727-24.082-41.917 48.226-.107"/></g>
          </g>
<g transform="translate(3315, 735) scale(1 1) rotate(90 145 125)">
            <g ><path d="M.037 249.12 144.037 0l.293.212L288.075 249.48l-.33.148L0 249.48"/><path d="M162.874 177.196H125.2l-52.811 30.49m52.811-30.49 18.837-32.627V83.587m0 60.982 18.837 32.627 52.812 30.49"/><path d="m28.367 200.384 56.262.102-28.676 49.023M172.372 49.114l-28.22 48.673-28.116-49.345m115.337 201.02-28.042-48.776 56.792.323"/><path d="m24.047 207.584 48.342.102-24.02 41.819M168.297 41.773l-24.26 41.814-24.205-41.711m119.936 207.727-24.082-41.917 48.226-.107"/></g>
          </g>
<g transform="translate(3380, 843) scale(1 1) rotate(30 145 125)">
            <g ><path d="M.037 249.12 144.037 0l.293.212L288.075 249.48l-.33.148L0 249.48"/><path d="M162.874 177.196H125.2l-52.811 30.49m52.811-30.49 18.837-32.627V83.587m0 60.982 18.837 32.627 52.812 30.49"/><path d="m28.367 200.384 56.262.102-28.676 49.023M172.372 49.114l-28.22 48.673-28.116-49.345m115.337 201.02-28.042-48.776 56.792.323"/><path d="m24.047 207.584 48.342.102-24.02 41.819M168.297 41.773l-24.26 41.814-24.205-41.711m119.936 207.727-24.082-41.917 48.226-.107"/></g>
          </g>
<g transform="translate(3252, 1058) scale(1 1) rotate(210 145 125)">
            <g ><path d="M.037 249.12 144.037 0l.293.212L288.075 249.48l-.33.148L0 249.48"/><path d="M162.874 177.196H125.2l-52.811 30.49m52.811-30.49 18.837-32.627V83.587m0 60.982 18.837 32.627 52.812 30.49"/><path d="m28.367 200.384 56.262.102-28.676 49.023M172.372 49.114l-28.22 48.673-28.116-49.345m115.337 201.02-28.042-48.776 56.792.323"/><path d="m24.047 207.584 48.342.102-24.02 41.819M168.297 41.773l-24.26 41.814-24.205-41.711m119.936 207.727-24.082-41.917 48.226-.107"/></g>
          </g>
<g transform="translate(3317, 1170) scale(1 1) rotate(270 145 125)">
            <g ><path d="M.037 249.12 144.037 0l.293.212L288.075 249.48l-.33.148L0 249.48"/><path d="M162.874 177.196H125.2l-52.811 30.49m52.811-30.49 18.837-32.627V83.587m0 60.982 18.837 32.627 52.812 30.49"/><path d="m28.367 200.384 56.262.102-28.676 49.023M172.372 49.114l-28.22 48.673-28.116-49.345m115.337 201.02-28.042-48.776 56.792.323"/><path d="m24.047 207.584 48.342.102-24.02 41.819M168.297 41.773l-24.26 41.814-24.205-41.711m119.936 207.727-24.082-41.917 48.226-.107"/></g>
          </g>
<g transform="translate(3253, 1281) scale(1 1) rotate(330 145 125)">
            <g ><path d="M.037 249.12 144.037 0l.293.212L288.075 249.48l-.33.148L0 249.48"/><path d="M162.874 177.196H125.2l-52.811 30.49m52.811-30.49 18.837-32.627V83.587m0 60.982 18.837 32.627 52.812 30.49"/><path d="m28.367 200.384 56.262.102-28.676 49.023M172.372 49.114l-28.22 48.673-28.116-49.345m115.337 201.02-28.042-48.776 56.792.323"/><path d="m24.047 207.584 48.342.102-24.02 41.819M168.297 41.773l-24.26 41.814-24.205-41.711m119.936 207.727-24.082-41.917 48.226-.107"/></g>
          </g>
<g transform="translate(3380, 1499) scale(1 1) rotate(150 145 125)">
            <g ><path d="M.037 249.12 144.037 0l.293.212L288.075 249.48l-.33.148L0 249.48"/><path d="M162.874 177.196H125.2l-52.811 30.49m52.811-30.49 18.837-32.627V83.587m0 60.982 18.837 32.627 52.812 30.49"/><path d="m28.367 200.384 56.262.102-28.676 49.023M172.372 49.114l-28.22 48.673-28.116-49.345m115.337 201.02-28.042-48.776 56.792.323"/><path d="m24.047 207.584 48.342.102-24.02 41.819M168.297 41.773l-24.26 41.814-24.205-41.711m119.936 207.727-24.082-41.917 48.226-.107"/></g>
          </g>
<g transform="translate(3315, 1611) scale(1 1) rotate(90 145 125)">
            <g ><path d="M.037 249.12 144.037 0l.293.212L288.075 249.48l-.33.148L0 249.48"/><path d="M162.874 177.196H125.2l-52.811 30.49m52.811-30.49 18.837-32.627V83.587m0 60.982 18.837 32.627 52.812 30.49"/><path d="m28.367 200.384 56.262.102-28.676 49.023M172.372 49.114l-28.22 48.673-28.116-49.345m115.337 201.02-28.042-48.776 56.792.323"/><path d="m24.047 207.584 48.342.102-24.02 41.819M168.297 41.773l-24.26 41.814-24.205-41.711m119.936 207.727-24.082-41.917 48.226-.107"/></g>
          </g>
<g transform="translate(3380, 1719) scale(1 1) rotate(30 145 125)">
            <g ><path d="M.037 249.12 144.037 0l.293.212L288.075 249.48l-.33.148L0 249.48"/><path d="M162.874 177.196H125.2l-52.811 30.49m52.811-30.49 18.837-32.627V83.587m0 60.982 18.837 32.627 52.812 30.49"/><path d="m28.367 200.384 56.262.102-28.676 49.023M172.372 49.114l-28.22 48.673-28.116-49.345m115.337 201.02-28.042-48.776 56.792.323"/><path d="m24.047 207.584 48.342.102-24.02 41.819M168.297 41.773l-24.26 41.814-24.205-41.711m119.936 207.727-24.082-41.917 48.226-.107"/></g>
          </g>
<g transform="translate(3252, 1934) scale(1 1) rotate(210 145 125)">
            <g ><path d="M.037 249.12 144.037 0l.293.212L288.075 249.48l-.33.148L0 249.48"/><path d="M162.874 177.196H125.2l-52.811 30.49m52.811-30.49 18.837-32.627V83.587m0 60.982 18.837 32.627 52.812 30.49"/><path d="m28.367 200.384 56.262.102-28.676 49.023M172.372 49.114l-28.22 48.673-28.116-49.345m115.337 201.02-28.042-48.776 56.792.323"/><path d="m24.047 207.584 48.342.102-24.02 41.819M168.297 41.773l-24.26 41.814-24.205-41.711m119.936 207.727-24.082-41.917 48.226-.107"/></g>
          </g>
<g transform="translate(3317, 2046) scale(1 1) rotate(270 145 125)">
            <g ><path d="M.037 249.12 144.037 0l.293.212L288.075 249.48l-.33.148L0 249.48"/><path d="M162.874 177.196H125.2l-52.811 30.49m52.811-30.49 18.837-32.627V83.587m0 60.982 18.837 32.627 52.812 30.49"/><path d="m28.367 200.384 56.262.102-28.676 49.023M172.372 49.114l-28.22 48.673-28.116-49.345m115.337 201.02-28.042-48.776 56.792.323"/><path d="m24.047 207.584 48.342.102-24.02 41.819M168.297 41.773l-24.26 41.814-24.205-41.711m119.936 207.727-24.082-41.917 48.226-.107"/></g>
          </g>
<g transform="translate(3253, 2157) scale(1 1) rotate(330 145 125)">
            <g ><path d="M.037 249.12 144.037 0l.293.212L288.075 249.48l-.33.148L0 249.48"/><path d="M162.874 177.196H125.2l-52.811 30.49m52.811-30.49 18.837-32.627V83.587m0 60.982 18.837 32.627 52.812 30.49"/><path d="m28.367 200.384 56.262.102-28.676 49.023M172.372 49.114l-28.22 48.673-28.116-49.345m115.337 201.02-28.042-48.776 56.792.323"/><path d="m24.047 207.584 48.342.102-24.02 41.819M168.297 41.773l-24.26 41.814-24.205-41.711m119.936 207.727-24.082-41.917 48.226-.107"/></g>
          </g>
<g transform="translate(3380, 2375) scale(1 1) rotate(150 145 125)">
            <path d="M.037 249.12 144.037 0l.293.212L288.075 249.48l-.33.148L0 249.48" /><g ><path d="M195.877 249.589v-53.34M46.004 169.58l46.193 26.67M190.23 79.79l-46.193 26.67M92.197 196.25v53.269m51.84-143.059L97.905 79.826m97.972 116.424 46.133-26.635M92.197 196.25l51.84-29.93m0-59.86v59.86m51.84 29.93-51.84-29.93"/></g>
          </g>
<g transform="translate(3508, -33) scale(1 1) rotate(330 145 125)">
            <path d="M.037 249.12 144.037 0l.293.212L288.075 249.48l-.33.148L0 249.48M59.968 145.44l168.193.143m-24.006-41.629-84.22 145.588m48.055.024-83.973-145.73" />
          </g>
<g transform="translate(3635, 185) scale(1 1) rotate(150 145 125)">
            <g ><path d="M.037 249.12 144.037 0l.293.212L288.075 249.48l-.33.148L0 249.48"/><path d="m144.037 166.32-60.776 40.222 60.62 37.764m.312 0 60.62-37.764-60.776-40.222"/><path d="m53.642 156.384 29.62 50.158-66.87 14.283 56.139 28.692m143.013 0 56.138-28.692-66.869-14.283 29.62-50.158M144.33.212l-.458 249.342"/></g>
          </g>
<g transform="translate(3570, 297) scale(1 1) rotate(90 145 125)">
            <g ><path d="M.037 249.12 144.037 0l.293.212L288.075 249.48l-.33.148L0 249.48"/><path d="m144.037 166.32-60.776 40.222 60.62 37.764m.312 0 60.62-37.764-60.776-40.222"/><path d="m53.642 156.384 29.62 50.158-66.87 14.283 56.139 28.692m143.013 0 56.138-28.692-66.869-14.283 29.62-50.158M144.33.212l-.458 249.342"/></g>
          </g>
<g transform="translate(3635, 405) scale(1 1) rotate(30 145 125)">
            <g ><path d="M.037 249.12 144.037 0l.293.212L288.075 249.48l-.33.148L0 249.48"/><path d="m144.037 166.32-60.776 40.222 60.62 37.764m.312 0 60.62-37.764-60.776-40.222"/><path d="m53.642 156.384 29.62 50.158-66.87 14.283 56.139 28.692m143.013 0 56.138-28.692-66.869-14.283 29.62-50.158M144.33.212l-.458 249.342"/></g>
          </g>
<g transform="translate(3507, 620) scale(1 1) rotate(210 145 125)">
            <g ><path d="M.037 249.12 144.037 0l.293.212L288.075 249.48l-.33.148L0 249.48"/><path d="m144.037 166.32-60.776 40.222 60.62 37.764m.312 0 60.62-37.764-60.776-40.222"/><path d="m53.642 156.384 29.62 50.158-66.87 14.283 56.139 28.692m143.013 0 56.138-28.692-66.869-14.283 29.62-50.158M144.33.212l-.458 249.342"/></g>
          </g>
<g transform="translate(3572, 732) scale(1 1) rotate(270 145 125)">
            <g ><path d="M.037 249.12 144.037 0l.293.212L288.075 249.48l-.33.148L0 249.48"/><path d="m144.037 166.32-60.776 40.222 60.62 37.764m.312 0 60.62-37.764-60.776-40.222"/><path d="m53.642 156.384 29.62 50.158-66.87 14.283 56.139 28.692m143.013 0 56.138-28.692-66.869-14.283 29.62-50.158M144.33.212l-.458 249.342"/></g>
          </g>
<g transform="translate(3508, 843) scale(1 1) rotate(330 145 125)">
            <g ><path d="M.037 249.12 144.037 0l.293.212L288.075 249.48l-.33.148L0 249.48"/><path d="m144.037 166.32-60.776 40.222 60.62 37.764m.312 0 60.62-37.764-60.776-40.222"/><path d="m53.642 156.384 29.62 50.158-66.87 14.283 56.139 28.692m143.013 0 56.138-28.692-66.869-14.283 29.62-50.158M144.33.212l-.458 249.342"/></g>
          </g>
<g transform="translate(3635, 1061) scale(1 1) rotate(150 145 125)">
            <g ><path d="M.037 249.12 144.037 0l.293.212L288.075 249.48l-.33.148L0 249.48"/><path d="m144.037 166.32-60.776 40.222 60.62 37.764m.312 0 60.62-37.764-60.776-40.222"/><path d="m53.642 156.384 29.62 50.158-66.87 14.283 56.139 28.692m143.013 0 56.138-28.692-66.869-14.283 29.62-50.158M144.33.212l-.458 249.342"/></g>
          </g>
<g transform="translate(3570, 1173) scale(1 1) rotate(90 145 125)">
            <g ><path d="M.037 249.12 144.037 0l.293.212L288.075 249.48l-.33.148L0 249.48"/><path d="m144.037 166.32-60.776 40.222 60.62 37.764m.312 0 60.62-37.764-60.776-40.222"/><path d="m53.642 156.384 29.62 50.158-66.87 14.283 56.139 28.692m143.013 0 56.138-28.692-66.869-14.283 29.62-50.158M144.33.212l-.458 249.342"/></g>
          </g>
<g transform="translate(3635, 1281) scale(1 1) rotate(30 145 125)">
            <g ><path d="M.037 249.12 144.037 0l.293.212L288.075 249.48l-.33.148L0 249.48"/><path d="m144.037 166.32-60.776 40.222 60.62 37.764m.312 0 60.62-37.764-60.776-40.222"/><path d="m53.642 156.384 29.62 50.158-66.87 14.283 56.139 28.692m143.013 0 56.138-28.692-66.869-14.283 29.62-50.158M144.33.212l-.458 249.342"/></g>
          </g>
<g transform="translate(3507, 1496) scale(1 1) rotate(210 145 125)">
            <g ><path d="M.037 249.12 144.037 0l.293.212L288.075 249.48l-.33.148L0 249.48"/><path d="m144.037 166.32-60.776 40.222 60.62 37.764m.312 0 60.62-37.764-60.776-40.222"/><path d="m53.642 156.384 29.62 50.158-66.87 14.283 56.139 28.692m143.013 0 56.138-28.692-66.869-14.283 29.62-50.158M144.33.212l-.458 249.342"/></g>
          </g>
<g transform="translate(3572, 1608) scale(1 1) rotate(270 145 125)">
            <g ><path d="M.037 249.12 144.037 0l.293.212L288.075 249.48l-.33.148L0 249.48"/><path d="m144.037 166.32-60.776 40.222 60.62 37.764m.312 0 60.62-37.764-60.776-40.222"/><path d="m53.642 156.384 29.62 50.158-66.87 14.283 56.139 28.692m143.013 0 56.138-28.692-66.869-14.283 29.62-50.158M144.33.212l-.458 249.342"/></g>
          </g>
<g transform="translate(3508, 1719) scale(1 1) rotate(330 145 125)">
            <g ><path d="M.037 249.12 144.037 0l.293.212L288.075 249.48l-.33.148L0 249.48"/><path d="m144.037 166.32-60.776 40.222 60.62 37.764m.312 0 60.62-37.764-60.776-40.222"/><path d="m53.642 156.384 29.62 50.158-66.87 14.283 56.139 28.692m143.013 0 56.138-28.692-66.869-14.283 29.62-50.158M144.33.212l-.458 249.342"/></g>
          </g>
<g transform="translate(3635, 1937) scale(1 1) rotate(150 145 125)">
            <g ><path d="M.037 249.12 144.037 0l.293.212L288.075 249.48l-.33.148L0 249.48"/><path d="m144.037 166.32-60.776 40.222 60.62 37.764m.312 0 60.62-37.764-60.776-40.222"/><path d="m53.642 156.384 29.62 50.158-66.87 14.283 56.139 28.692m143.013 0 56.138-28.692-66.869-14.283 29.62-50.158M144.33.212l-.458 249.342"/></g>
          </g>
<g transform="translate(3570, 2049) scale(1 1) rotate(90 145 125)">
            <g ><path d="M.037 249.12 144.037 0l.293.212L288.075 249.48l-.33.148L0 249.48"/><path d="m144.037 166.32-60.776 40.222 60.62 37.764m.312 0 60.62-37.764-60.776-40.222"/><path d="m53.642 156.384 29.62 50.158-66.87 14.283 56.139 28.692m143.013 0 56.138-28.692-66.869-14.283 29.62-50.158M144.33.212l-.458 249.342"/></g>
          </g>
<g transform="translate(3635, 2157) scale(1 1) rotate(30 145 125)">
            <g ><path d="M.037 249.12 144.037 0l.293.212L288.075 249.48l-.33.148L0 249.48"/><path d="m144.037 166.32-60.776 40.222 60.62 37.764m.312 0 60.62-37.764-60.776-40.222"/><path d="m53.642 156.384 29.62 50.158-66.87 14.283 56.139 28.692m143.013 0 56.138-28.692-66.869-14.283 29.62-50.158M144.33.212l-.458 249.342"/></g>
          </g>
<g transform="translate(3507, 2372) scale(1 1) rotate(210 145 125)">
            <path d="M.037 249.12 144.037 0l.293.212L288.075 249.48l-.33.148L0 249.48" /><path d="M0 249.48c96.025-53.878 192.05-52.865 288.075 0M144.037 0C142.684 110.099 93.795 192.753 0 249.48m288.075 0C193.403 193.259 146.267 109.593 144.037 0" />
          </g>
<g transform="translate(3890, -33) scale(1 1) rotate(30 145 125)">
            <path d="M.037 249.12 144.037 0l.293.212L288.075 249.48l-.33.148L0 249.48M59.968 145.44l168.193.143m-24.006-41.629-84.22 145.588m48.055.024-83.973-145.73" />
          </g>
<g transform="translate(3762, 182) scale(1 1) rotate(210 145 125)">
            <g ><path d="M.037 249.12 144.037 0l.293.212L288.075 249.48l-.33.148L0 249.48"/><path d="m144.037 166.32-60.776 40.222 60.62 37.764m.312 0 60.62-37.764-60.776-40.222"/><path d="m53.642 156.384 29.62 50.158-66.87 14.283 56.139 28.692m143.013 0 56.138-28.692-66.869-14.283 29.62-50.158M144.33.212l-.458 249.342"/></g>
          </g>
<g transform="translate(3827, 294) scale(1 1) rotate(270 145 125)">
            <g ><path d="M.037 249.12 144.037 0l.293.212L288.075 249.48l-.33.148L0 249.48"/><path d="m144.037 166.32-60.776 40.222 60.62 37.764m.312 0 60.62-37.764-60.776-40.222"/><path d="m53.642 156.384 29.62 50.158-66.87 14.283 56.139 28.692m143.013 0 56.138-28.692-66.869-14.283 29.62-50.158M144.33.212l-.458 249.342"/></g>
          </g>
<g transform="translate(3763, 405) scale(1 1) rotate(330 145 125)">
            <path d="M.037 249.12 144.037 0l.293.212L288.075 249.48l-.33.148L0 249.48" /><g ><path d="M195.877 249.589v-53.34M46.004 169.58l46.193 26.67M190.23 79.79l-46.193 26.67M92.197 196.25v53.269m51.84-143.059L97.905 79.826m97.972 116.424 46.133-26.635M92.197 196.25l51.84-29.93m0-59.86v59.86m51.84 29.93-51.84-29.93"/></g>
          </g>
<g transform="translate(3762, 1058) scale(1 1) rotate(210 145 125)">
            <path d="M.037 249.12 144.037 0l.293.212L288.075 249.48l-.33.148L0 249.48" /><g ><path d="M195.877 249.589v-53.34M46.004 169.58l46.193 26.67M190.23 79.79l-46.193 26.67M92.197 196.25v53.269m51.84-143.059L97.905 79.826m97.972 116.424 46.133-26.635M92.197 196.25l51.84-29.93m0-59.86v59.86m51.84 29.93-51.84-29.93"/></g>
          </g>
<g transform="translate(3827, 1170) scale(1 1) rotate(270 145 125)">
            <g ><path d="M.037 249.12 144.037 0l.293.212L288.075 249.48l-.33.148L0 249.48"/><path d="m144.037 166.32-60.776 40.222 60.62 37.764m.312 0 60.62-37.764-60.776-40.222"/><path d="m53.642 156.384 29.62 50.158-66.87 14.283 56.139 28.692m143.013 0 56.138-28.692-66.869-14.283 29.62-50.158M144.33.212l-.458 249.342"/></g>
          </g>
<g transform="translate(3763, 1281) scale(1 1) rotate(330 145 125)">
            <g ><path d="M.037 249.12 144.037 0l.293.212L288.075 249.48l-.33.148L0 249.48"/><path d="m144.037 166.32-60.776 40.222 60.62 37.764m.312 0 60.62-37.764-60.776-40.222"/><path d="m53.642 156.384 29.62 50.158-66.87 14.283 56.139 28.692m143.013 0 56.138-28.692-66.869-14.283 29.62-50.158M144.33.212l-.458 249.342"/></g>
          </g>
<g transform="translate(3890, 1499) scale(1 1) rotate(150 145 125)">
            <path d="M.037 249.12 144.037 0l.293.212L288.075 249.48l-.33.148L0 249.48M59.968 145.44l168.193.143m-24.006-41.629-84.22 145.588m48.055.024-83.973-145.73" />
          </g>
<g transform="translate(3827, 2046) scale(1 1) rotate(270 145 125)">
            <path d="M.037 249.12 144.037 0l.293.212L288.075 249.48l-.33.148L0 249.48" /><g ><path d="M195.877 249.589v-53.34M46.004 169.58l46.193 26.67M190.23 79.79l-46.193 26.67M92.197 196.25v53.269m51.84-143.059L97.905 79.826m97.972 116.424 46.133-26.635M92.197 196.25l51.84-29.93m0-59.86v59.86m51.84 29.93-51.84-29.93"/></g>
          </g>
<g transform="translate(3763, 2157) scale(1 1) rotate(330 145 125)">
            <g ><path d="M.037 249.12 144.037 0l.293.212L288.075 249.48l-.33.148L0 249.48"/><path d="m144.037 166.32-60.776 40.222 60.62 37.764m.312 0 60.62-37.764-60.776-40.222"/><path d="m53.642 156.384 29.62 50.158-66.87 14.283 56.139 28.692m143.013 0 56.138-28.692-66.869-14.283 29.62-50.158M144.33.212l-.458 249.342"/></g>
          </g>
<g transform="translate(3890, 2375) scale(1 1) rotate(150 145 125)">
            <path d="M.037 249.12 144.037 0l.293.212L288.075 249.48l-.33.148L0 249.48" /><path d="M0 249.48c96.025-53.878 192.05-52.865 288.075 0M144.037 0C142.684 110.099 93.795 192.753 0 249.48m288.075 0C193.403 193.259 146.267 109.593 144.037 0" />
          </g>
<g transform="translate(4018, -33) scale(1 1) rotate(330 145 125)">
            <path d="M.037 249.12 144.037 0l.293.212L288.075 249.48l-.33.148L0 249.48M59.968 145.44l168.193.143m-24.006-41.629-84.22 145.588m48.055.024-83.973-145.73" />
          </g>
<g transform="translate(4145, 185) scale(1 1) rotate(150 145 125)">
            <g ><path d="M.037 249.12 144.037 0l.293.212L288.075 249.48l-.33.148L0 249.48"/><path d="m144.037 166.32-60.776 40.222 60.62 37.764m.312 0 60.62-37.764-60.776-40.222"/><path d="m53.642 156.384 29.62 50.158-66.87 14.283 56.139 28.692m143.013 0 56.138-28.692-66.869-14.283 29.62-50.158M144.33.212l-.458 249.342"/></g>
          </g>
<g transform="translate(4080, 297) scale(1 1) rotate(90 145 125)">
            <g ><path d="M.037 249.12 144.037 0l.293.212L288.075 249.48l-.33.148L0 249.48"/><path d="m144.037 166.32-60.776 40.222 60.62 37.764m.312 0 60.62-37.764-60.776-40.222"/><path d="m53.642 156.384 29.62 50.158-66.87 14.283 56.139 28.692m143.013 0 56.138-28.692-66.869-14.283 29.62-50.158M144.33.212l-.458 249.342"/></g>
          </g>
<g transform="translate(4145, 405) scale(1 1) rotate(30 145 125)">
            <path d="M.037 249.12 144.037 0l.293.212L288.075 249.48l-.33.148L0 249.48" /><g ><path d="M195.877 249.589v-53.34M46.004 169.58l46.193 26.67M190.23 79.79l-46.193 26.67M92.197 196.25v53.269m51.84-143.059L97.905 79.826m97.972 116.424 46.133-26.635M92.197 196.25l51.84-29.93m0-59.86v59.86m51.84 29.93-51.84-29.93"/></g>
          </g>
<g transform="translate(4145, 1061) scale(1 1) rotate(150 145 125)">
            <path d="M.037 249.12 144.037 0l.293.212L288.075 249.48l-.33.148L0 249.48" /><g ><path d="M195.877 249.589v-53.34M46.004 169.58l46.193 26.67M190.23 79.79l-46.193 26.67M92.197 196.25v53.269m51.84-143.059L97.905 79.826m97.972 116.424 46.133-26.635M92.197 196.25l51.84-29.93m0-59.86v59.86m51.84 29.93-51.84-29.93"/></g>
          </g>
<g transform="translate(4080, 1173) scale(1 1) rotate(90 145 125)">
            <g ><path d="M.037 249.12 144.037 0l.293.212L288.075 249.48l-.33.148L0 249.48"/><path d="m144.037 166.32-60.776 40.222 60.62 37.764m.312 0 60.62-37.764-60.776-40.222"/><path d="m53.642 156.384 29.62 50.158-66.87 14.283 56.139 28.692m143.013 0 56.138-28.692-66.869-14.283 29.62-50.158M144.33.212l-.458 249.342"/></g>
          </g>
<g transform="translate(4145, 1281) scale(1 1) rotate(30 145 125)">
            <g ><path d="M.037 249.12 144.037 0l.293.212L288.075 249.48l-.33.148L0 249.48"/><path d="m144.037 166.32-60.776 40.222 60.62 37.764m.312 0 60.62-37.764-60.776-40.222"/><path d="m53.642 156.384 29.62 50.158-66.87 14.283 56.139 28.692m143.013 0 56.138-28.692-66.869-14.283 29.62-50.158M144.33.212l-.458 249.342"/></g>
          </g>
<g transform="translate(4017, 1496) scale(1 1) rotate(210 145 125)">
            <path d="M.037 249.12 144.037 0l.293.212L288.075 249.48l-.33.148L0 249.48M59.968 145.44l168.193.143m-24.006-41.629-84.22 145.588m48.055.024-83.973-145.73" />
          </g>
<g transform="translate(4080, 2049) scale(1 1) rotate(90 145 125)">
            <path d="M.037 249.12 144.037 0l.293.212L288.075 249.48l-.33.148L0 249.48" /><g ><path d="M195.877 249.589v-53.34M46.004 169.58l46.193 26.67M190.23 79.79l-46.193 26.67M92.197 196.25v53.269m51.84-143.059L97.905 79.826m97.972 116.424 46.133-26.635M92.197 196.25l51.84-29.93m0-59.86v59.86m51.84 29.93-51.84-29.93"/></g>
          </g>
<g transform="translate(4145, 2157) scale(1 1) rotate(30 145 125)">
            <g ><path d="M.037 249.12 144.037 0l.293.212L288.075 249.48l-.33.148L0 249.48"/><path d="m144.037 166.32-60.776 40.222 60.62 37.764m.312 0 60.62-37.764-60.776-40.222"/><path d="m53.642 156.384 29.62 50.158-66.87 14.283 56.139 28.692m143.013 0 56.138-28.692-66.869-14.283 29.62-50.158M144.33.212l-.458 249.342"/></g>
          </g>
<g transform="translate(4017, 2372) scale(1 1) rotate(210 145 125)">
            <path d="M.037 249.12 144.037 0l.293.212L288.075 249.48l-.33.148L0 249.48" /><path d="M0 249.48c96.025-53.878 192.05-52.865 288.075 0M144.037 0C142.684 110.099 93.795 192.753 0 249.48m288.075 0C193.403 193.259 146.267 109.593 144.037 0" />
          </g>
<g transform="translate(4400, -33) scale(1 1) rotate(30 145 125)">
            
          </g>
<g transform="translate(4272, 182) scale(1 1) rotate(210 145 125)">
            <path d="M.037 249.12 144.037 0l.293.212L288.075 249.48l-.33.148L0 249.48" /><path d="M0 249.48c96.025-53.878 192.05-52.865 288.075 0M144.037 0C142.684 110.099 93.795 192.753 0 249.48m288.075 0C193.403 193.259 146.267 109.593 144.037 0" />
          </g>
<g transform="translate(4337, 294) scale(1 1) rotate(270 145 125)">
            <g ><path d="M.037 249.12 144.037 0l.293.212L288.075 249.48l-.33.148L0 249.48"/><path d="m144.037 166.32-60.776 40.222 60.62 37.764m.312 0 60.62-37.764-60.776-40.222"/><path d="m53.642 156.384 29.62 50.158-66.87 14.283 56.139 28.692m143.013 0 56.138-28.692-66.869-14.283 29.62-50.158M144.33.212l-.458 249.342"/></g>
          </g>
<g transform="translate(4273, 405) scale(1 1) rotate(330 145 125)">
            <g ><path d="M.037 249.12 144.037 0l.293.212L288.075 249.48l-.33.148L0 249.48"/><path d="M162.874 177.196H125.2l-52.811 30.49m52.811-30.49 18.837-32.627V83.587m0 60.982 18.837 32.627 52.812 30.49"/><path d="m28.367 200.384 56.262.102-28.676 49.023M172.372 49.114l-28.22 48.673-28.116-49.345m115.337 201.02-28.042-48.776 56.792.323"/><path d="m24.047 207.584 48.342.102-24.02 41.819M168.297 41.773l-24.26 41.814-24.205-41.711m119.936 207.727-24.082-41.917 48.226-.107"/></g>
          </g>
<g transform="translate(4400, 623) scale(1 1) rotate(150 145 125)">
            
          </g>
<g transform="translate(4400, 843) scale(1 1) rotate(30 145 125)">
            
          </g>
<g transform="translate(4272, 1058) scale(1 1) rotate(210 145 125)">
            <g ><path d="M.037 249.12 144.037 0l.293.212L288.075 249.48l-.33.148L0 249.48"/><path d="M162.874 177.196H125.2l-52.811 30.49m52.811-30.49 18.837-32.627V83.587m0 60.982 18.837 32.627 52.812 30.49"/><path d="m28.367 200.384 56.262.102-28.676 49.023M172.372 49.114l-28.22 48.673-28.116-49.345m115.337 201.02-28.042-48.776 56.792.323"/><path d="m24.047 207.584 48.342.102-24.02 41.819M168.297 41.773l-24.26 41.814-24.205-41.711m119.936 207.727-24.082-41.917 48.226-.107"/></g>
          </g>
<g transform="translate(4337, 1170) scale(1 1) rotate(270 145 125)">
            <g ><path d="M.037 249.12 144.037 0l.293.212L288.075 249.48l-.33.148L0 249.48"/><path d="m144.037 166.32-60.776 40.222 60.62 37.764m.312 0 60.62-37.764-60.776-40.222"/><path d="m53.642 156.384 29.62 50.158-66.87 14.283 56.139 28.692m143.013 0 56.138-28.692-66.869-14.283 29.62-50.158M144.33.212l-.458 249.342"/></g>
          </g>
<g transform="translate(4273, 1281) scale(1 1) rotate(330 145 125)">
            <g ><path d="M.037 249.12 144.037 0l.293.212L288.075 249.48l-.33.148L0 249.48"/><path d="m144.037 166.32-60.776 40.222 60.62 37.764m.312 0 60.62-37.764-60.776-40.222"/><path d="m53.642 156.384 29.62 50.158-66.87 14.283 56.139 28.692m143.013 0 56.138-28.692-66.869-14.283 29.62-50.158M144.33.212l-.458 249.342"/></g>
          </g>
<g transform="translate(4400, 1499) scale(1 1) rotate(150 145 125)">
            <path d="M.037 249.12 144.037 0l.293.212L288.075 249.48l-.33.148L0 249.48M59.968 145.44l168.193.143m-24.006-41.629-84.22 145.588m48.055.024-83.973-145.73" />
          </g>
<g transform="translate(4337, 2046) scale(1 1) rotate(270 145 125)">
            <path d="M.037 249.12 144.037 0l.293.212L288.075 249.48l-.33.148L0 249.48" /><g ><path d="m47.899 166.32 96.138-79.127 96.082 79.127"/><path d="m192.107 83.061 20.456 122.822L95.996 249.53"/><path d="M192.107 249.579 75.512 205.883 95.996 83.111"/></g>
          </g>
<g transform="translate(4273, 2157) scale(1 1) rotate(330 145 125)">
            <g ><path d="M.037 249.12 144.037 0l.293.212L288.075 249.48l-.33.148L0 249.48"/><path d="m144.037 166.32-60.776 40.222 60.62 37.764m.312 0 60.62-37.764-60.776-40.222"/><path d="m53.642 156.384 29.62 50.158-66.87 14.283 56.139 28.692m143.013 0 56.138-28.692-66.869-14.283 29.62-50.158M144.33.212l-.458 249.342"/></g>
          </g>
<g transform="translate(4400, 2375) scale(1 1) rotate(150 145 125)">
            <path d="M.037 249.12 144.037 0l.293.212L288.075 249.48l-.33.148L0 249.48" /><path d="M0 249.48c96.025-53.878 192.05-52.865 288.075 0M144.037 0C142.684 110.099 93.795 192.753 0 249.48m288.075 0C193.403 193.259 146.267 109.593 144.037 0" />
          </g>
<g transform="translate(4528, -33) scale(1 1) rotate(330 145 125)">
            
          </g>
<g transform="translate(4655, 185) scale(1 1) rotate(150 145 125)">
            <g ><path d="M.037 249.12 144.037 0l.293.212L288.075 249.48l-.33.148L0 249.48"/><path d="M162.874 177.196H125.2l-52.811 30.49m52.811-30.49 18.837-32.627V83.587m0 60.982 18.837 32.627 52.812 30.49"/><path d="m28.367 200.384 56.262.102-28.676 49.023M172.372 49.114l-28.22 48.673-28.116-49.345m115.337 201.02-28.042-48.776 56.792.323"/><path d="m24.047 207.584 48.342.102-24.02 41.819M168.297 41.773l-24.26 41.814-24.205-41.711m119.936 207.727-24.082-41.917 48.226-.107"/></g>
          </g>
<g transform="translate(4590, 297) scale(1 1) rotate(90 145 125)">
            <g ><path d="M.037 249.12 144.037 0l.293.212L288.075 249.48l-.33.148L0 249.48"/><path d="m144.037 166.32-60.776 40.222 60.62 37.764m.312 0 60.62-37.764-60.776-40.222"/><path d="m53.642 156.384 29.62 50.158-66.87 14.283 56.139 28.692m143.013 0 56.138-28.692-66.869-14.283 29.62-50.158M144.33.212l-.458 249.342"/></g>
          </g>
<g transform="translate(4655, 405) scale(1 1) rotate(30 145 125)">
            <g ><path d="M.037 249.12 144.037 0l.293.212L288.075 249.48l-.33.148L0 249.48"/><path d="m144.037 166.32-60.776 40.222 60.62 37.764m.312 0 60.62-37.764-60.776-40.222"/><path d="m53.642 156.384 29.62 50.158-66.87 14.283 56.139 28.692m143.013 0 56.138-28.692-66.869-14.283 29.62-50.158M144.33.212l-.458 249.342"/></g>
          </g>
<g transform="translate(4527, 620) scale(1 1) rotate(210 145 125)">
            <path d="M.037 249.12 144.037 0l.293.212L288.075 249.48l-.33.148L0 249.48m78.472-45.355 65.565-37.805m.043-75.684-.043 75.684m65.523 37.879-65.523-37.879M91.666 90.603l104.828.067m39.302 68.153-52.472 90.751m-78.674-.04-52.356-90.818M99.99 76.203l88.2.067m55.915 96.962-44.159 76.35m-111.928-.057-44.043-76.418" />
          </g>
<g transform="translate(4592, 732) scale(1 1) rotate(270 145 125)">
            <g ><path d="M.037 249.12 144.037 0l.293.212L288.075 249.48l-.33.148L0 249.48"/><path d="M162.874 177.196H125.2l-52.811 30.49m52.811-30.49 18.837-32.627V83.587m0 60.982 18.837 32.627 52.812 30.49"/><path d="m28.367 200.384 56.262.102-28.676 49.023M172.372 49.114l-28.22 48.673-28.116-49.345m115.337 201.02-28.042-48.776 56.792.323"/><path d="m24.047 207.584 48.342.102-24.02 41.819M168.297 41.773l-24.26 41.814-24.205-41.711m119.936 207.727-24.082-41.917 48.226-.107"/></g>
          </g>
<g transform="translate(4528, 843) scale(1 1) rotate(330 145 125)">
            <path d="M.037 249.12 144.037 0l.293.212L288.075 249.48l-.33.148L0 249.48m78.472-45.355 65.565-37.805m.043-75.684-.043 75.684m65.523 37.879-65.523-37.879M91.666 90.603l104.828.067m39.302 68.153-52.472 90.751m-78.674-.04-52.356-90.818M99.99 76.203l88.2.067m55.915 96.962-44.159 76.35m-111.928-.057-44.043-76.418" />
          </g>
<g transform="translate(4655, 1061) scale(1 1) rotate(150 145 125)">
            <g ><path d="M.037 249.12 144.037 0l.293.212L288.075 249.48l-.33.148L0 249.48"/><path d="m144.037 166.32-60.776 40.222 60.62 37.764m.312 0 60.62-37.764-60.776-40.222"/><path d="m53.642 156.384 29.62 50.158-66.87 14.283 56.139 28.692m143.013 0 56.138-28.692-66.869-14.283 29.62-50.158M144.33.212l-.458 249.342"/></g>
          </g>
<g transform="translate(4590, 1173) scale(1 1) rotate(90 145 125)">
            <g ><path d="M.037 249.12 144.037 0l.293.212L288.075 249.48l-.33.148L0 249.48"/><path d="m144.037 166.32-60.776 40.222 60.62 37.764m.312 0 60.62-37.764-60.776-40.222"/><path d="m53.642 156.384 29.62 50.158-66.87 14.283 56.139 28.692m143.013 0 56.138-28.692-66.869-14.283 29.62-50.158M144.33.212l-.458 249.342"/></g>
          </g>
<g transform="translate(4655, 1281) scale(1 1) rotate(30 145 125)">
            <g ><path d="M.037 249.12 144.037 0l.293.212L288.075 249.48l-.33.148L0 249.48"/><path d="m144.037 166.32-60.776 40.222 60.62 37.764m.312 0 60.62-37.764-60.776-40.222"/><path d="m53.642 156.384 29.62 50.158-66.87 14.283 56.139 28.692m143.013 0 56.138-28.692-66.869-14.283 29.62-50.158M144.33.212l-.458 249.342"/></g>
          </g>
<g transform="translate(4527, 1496) scale(1 1) rotate(210 145 125)">
            <g ><path d="M.037 249.12 144.037 0l.293.212L288.075 249.48l-.33.148L0 249.48"/><path d="M162.874 177.196H125.2l-52.811 30.49m52.811-30.49 18.837-32.627V83.587m0 60.982 18.837 32.627 52.812 30.49"/><path d="m28.367 200.384 56.262.102-28.676 49.023M172.372 49.114l-28.22 48.673-28.116-49.345m115.337 201.02-28.042-48.776 56.792.323"/><path d="m24.047 207.584 48.342.102-24.02 41.819M168.297 41.773l-24.26 41.814-24.205-41.711m119.936 207.727-24.082-41.917 48.226-.107"/></g>
          </g>
<g transform="translate(4592, 1608) scale(1 1) rotate(270 145 125)">
            
          </g>
<g transform="translate(4655, 1937) scale(1 1) rotate(150 145 125)">
            
          </g>
<g transform="translate(4590, 2049) scale(1 1) rotate(90 145 125)">
            <g ><path d="M.037 249.12 144.037 0l.293.212L288.075 249.48l-.33.148L0 249.48m212.284.109v-43.56M37.801 183.788l37.724 21.78M182.027 65.583l-37.724 21.78m-.431 162.191.165-83.234m-72-41.76 72 41.76m72.166-41.474-72.166 41.474M75.525 205.568v43.95m68.778-162.156-38.062-21.975M212.284 206.03l38.062-21.976M75.525 205.568l68.512-39.248m.266-78.958-.266 78.958m68.247 39.71-68.247-39.71"/></g>
          </g>
<g transform="translate(4655, 2157) scale(1 1) rotate(30 145 125)">
            <g ><path d="M.037 249.12 144.037 0l.293.212L288.075 249.48l-.33.148L0 249.48"/><path d="m144.037 166.32-60.776 40.222 60.62 37.764m.312 0 60.62-37.764-60.776-40.222"/><path d="m53.642 156.384 29.62 50.158-66.87 14.283 56.139 28.692m143.013 0 56.138-28.692-66.869-14.283 29.62-50.158M144.33.212l-.458 249.342"/></g>
          </g>
<g transform="translate(4527, 2372) scale(1 1) rotate(210 145 125)">
            <path d="M.037 249.12 144.037 0l.293.212L288.075 249.48l-.33.148L0 249.48m78.472-45.355 65.565-37.805m.043-75.684-.043 75.684m65.523 37.879-65.523-37.879M91.666 90.603l104.828.067m39.302 68.153-52.472 90.751m-78.674-.04-52.356-90.818M99.99 76.203l88.2.067m55.915 96.962-44.159 76.35m-111.928-.057-44.043-76.418" />
          </g>
<g transform="translate(4847, 294) scale(1 1) rotate(270 145 125)">
            
          </g>
<g transform="translate(4783, 405) scale(1 1) rotate(330 145 125)">
            <path d="M.037 249.12 144.037 0l.293.212L288.075 249.48l-.33.148L0 249.48M59.968 145.44l168.193.143m-24.006-41.629-84.22 145.588m48.055.024-83.973-145.73" />
          </g>
<g transform="translate(4910, 623) scale(1 1) rotate(150 145 125)">
            <path d="M.037 249.12 144.037 0l.293.212L288.075 249.48l-.33.148L0 249.48" /><g ><path d="m47.899 166.32 96.138-79.127 96.082 79.127"/><path d="m192.107 83.061 20.456 122.822L95.996 249.53"/><path d="M192.107 249.579 75.512 205.883 95.996 83.111"/></g>
          </g>
<g transform="translate(4845, 735) scale(1 1) rotate(90 145 125)">
            <g ><path d="M.037 249.12 144.037 0l.293.212L288.075 249.48l-.33.148L0 249.48"/><path d="M162.874 177.196H125.2l-52.811 30.49m52.811-30.49 18.837-32.627V83.587m0 60.982 18.837 32.627 52.812 30.49"/><path d="m28.367 200.384 56.262.102-28.676 49.023M172.372 49.114l-28.22 48.673-28.116-49.345m115.337 201.02-28.042-48.776 56.792.323"/><path d="m24.047 207.584 48.342.102-24.02 41.819M168.297 41.773l-24.26 41.814-24.205-41.711m119.936 207.727-24.082-41.917 48.226-.107"/></g>
          </g>
<g transform="translate(4910, 843) scale(1 1) rotate(30 145 125)">
            <path d="M.037 249.12 144.037 0l.293.212L288.075 249.48l-.33.148L0 249.48" /><g ><path d="m47.899 166.32 96.138-79.127 96.082 79.127"/><path d="m192.107 83.061 20.456 122.822L95.996 249.53"/><path d="M192.107 249.579 75.512 205.883 95.996 83.111"/></g>
          </g>
<g transform="translate(4782, 1058) scale(1 1) rotate(210 145 125)">
            <path d="M.037 249.12 144.037 0l.293.212L288.075 249.48l-.33.148L0 249.48M59.968 145.44l168.193.143m-24.006-41.629-84.22 145.588m48.055.024-83.973-145.73" />
          </g>
<g transform="translate(4847, 1170) scale(1 1) rotate(270 145 125)">
            
          </g>
<g transform="translate(4783, 1281) scale(1 1) rotate(330 145 125)">
            <g ><path d="M.037 249.12 144.037 0l.293.212L288.075 249.48l-.33.148L0 249.48m212.284.109v-43.56M37.801 183.788l37.724 21.78M182.027 65.583l-37.724 21.78m-.431 162.191.165-83.234m-72-41.76 72 41.76m72.166-41.474-72.166 41.474M75.525 205.568v43.95m68.778-162.156-38.062-21.975M212.284 206.03l38.062-21.976M75.525 205.568l68.512-39.248m.266-78.958-.266 78.958m68.247 39.71-68.247-39.71"/></g>
          </g>
<g transform="translate(4910, 1499) scale(1 1) rotate(150 145 125)">
            <g ><path d="M.037 249.12 144.037 0l.293.212L288.075 249.48l-.33.148L0 249.48"/><path d="m144.037 166.32-60.776 40.222 60.62 37.764m.312 0 60.62-37.764-60.776-40.222"/><path d="m53.642 156.384 29.62 50.158-66.87 14.283 56.139 28.692m143.013 0 56.138-28.692-66.869-14.283 29.62-50.158M144.33.212l-.458 249.342"/></g>
          </g>
<g transform="translate(4845, 1611) scale(1 1) rotate(90 145 125)">
            <g ><path d="M.037 249.12 144.037 0l.293.212L288.075 249.48l-.33.148L0 249.48"/><path d="m144.037 166.32-60.776 40.222 60.62 37.764m.312 0 60.62-37.764-60.776-40.222"/><path d="m53.642 156.384 29.62 50.158-66.87 14.283 56.139 28.692m143.013 0 56.138-28.692-66.869-14.283 29.62-50.158M144.33.212l-.458 249.342"/></g>
          </g>
<g transform="translate(4910, 1719) scale(1 1) rotate(30 145 125)">
            <g ><path d="M.037 249.12 144.037 0l.293.212L288.075 249.48l-.33.148L0 249.48"/><path d="m144.037 166.32-60.776 40.222 60.62 37.764m.312 0 60.62-37.764-60.776-40.222"/><path d="m53.642 156.384 29.62 50.158-66.87 14.283 56.139 28.692m143.013 0 56.138-28.692-66.869-14.283 29.62-50.158M144.33.212l-.458 249.342"/></g>
          </g>
<g transform="translate(4782, 1934) scale(1 1) rotate(210 145 125)">
            <g ><path d="M.037 249.12 144.037 0l.293.212L288.075 249.48l-.33.148L0 249.48"/><path d="m144.037 166.32-60.776 40.222 60.62 37.764m.312 0 60.62-37.764-60.776-40.222"/><path d="m53.642 156.384 29.62 50.158-66.87 14.283 56.139 28.692m143.013 0 56.138-28.692-66.869-14.283 29.62-50.158M144.33.212l-.458 249.342"/></g>
          </g>
<g transform="translate(4847, 2046) scale(1 1) rotate(270 145 125)">
            <g ><path d="M.037 249.12 144.037 0l.293.212L288.075 249.48l-.33.148L0 249.48"/><path d="m144.037 166.32-60.776 40.222 60.62 37.764m.312 0 60.62-37.764-60.776-40.222"/><path d="m53.642 156.384 29.62 50.158-66.87 14.283 56.139 28.692m143.013 0 56.138-28.692-66.869-14.283 29.62-50.158M144.33.212l-.458 249.342"/></g>
          </g>
<g transform="translate(4783, 2157) scale(1 1) rotate(330 145 125)">
            <g ><path d="M.037 249.12 144.037 0l.293.212L288.075 249.48l-.33.148L0 249.48"/><path d="M162.874 177.196H125.2l-52.811 30.49m52.811-30.49 18.837-32.627V83.587m0 60.982 18.837 32.627 52.812 30.49"/><path d="m28.367 200.384 56.262.102-28.676 49.023M172.372 49.114l-28.22 48.673-28.116-49.345m115.337 201.02-28.042-48.776 56.792.323"/><path d="m24.047 207.584 48.342.102-24.02 41.819M168.297 41.773l-24.26 41.814-24.205-41.711m119.936 207.727-24.082-41.917 48.226-.107"/></g>
          </g>
<g transform="translate(5165, 1281) scale(1 1) rotate(30 145 125)">
            
          </g>
<g transform="translate(5037, 1496) scale(1 1) rotate(210 145 125)">
            <path d="M.037 249.12 144.037 0l.293.212L288.075 249.48l-.33.148L0 249.48M59.968 145.44l168.193.143m-24.006-41.629-84.22 145.588m48.055.024-83.973-145.73" />
          </g>
<g transform="translate(5102, 1608) scale(1 1) rotate(270 145 125)">
            <g ><path d="M.037 249.12 144.037 0l.293.212L288.075 249.48l-.33.148L0 249.48"/><path d="M162.874 177.196H125.2l-52.811 30.49m52.811-30.49 18.837-32.627V83.587m0 60.982 18.837 32.627 52.812 30.49"/><path d="m28.367 200.384 56.262.102-28.676 49.023M172.372 49.114l-28.22 48.673-28.116-49.345m115.337 201.02-28.042-48.776 56.792.323"/><path d="m24.047 207.584 48.342.102-24.02 41.819M168.297 41.773l-24.26 41.814-24.205-41.711m119.936 207.727-24.082-41.917 48.226-.107"/></g>
          </g>
<g transform="translate(5038, 1719) scale(1 1) rotate(330 145 125)">
            <g ><path d="M.037 249.12 144.037 0l.293.212L288.075 249.48l-.33.148L0 249.48"/><path d="M162.874 177.196H125.2l-52.811 30.49m52.811-30.49 18.837-32.627V83.587m0 60.982 18.837 32.627 52.812 30.49"/><path d="m28.367 200.384 56.262.102-28.676 49.023M172.372 49.114l-28.22 48.673-28.116-49.345m115.337 201.02-28.042-48.776 56.792.323"/><path d="m24.047 207.584 48.342.102-24.02 41.819M168.297 41.773l-24.26 41.814-24.205-41.711m119.936 207.727-24.082-41.917 48.226-.107"/></g>
          </g>
<g transform="translate(5165, 1937) scale(1 1) rotate(150 145 125)">
            <path d="M.037 249.12 144.037 0l.293.212L288.075 249.48l-.33.148L0 249.48" /><g ><path d="m47.899 166.32 96.138-79.127 96.082 79.127"/><path d="m192.107 83.061 20.456 122.822L95.996 249.53"/><path d="M192.107 249.579 75.512 205.883 95.996 83.111"/></g>
          </g>
<g transform="translate(5100, 2049) scale(1 1) rotate(90 145 125)">
            <path d="M.037 249.12 144.037 0l.293.212L288.075 249.48l-.33.148L0 249.48M59.968 145.44l168.193.143m-24.006-41.629-84.22 145.588m48.055.024-83.973-145.73" />
          </g>
<g transform="translate(5165, 2157) scale(1 1) rotate(30 145 125)">
            
          </g>
</svg>