<?xml version="1.0" encoding="UTF-8" standalone="no"?>
<svg
        xmlns="http://www.w3.org/2000/svg" version="1.1"
        viewBox="0 0 3315 3212"
        width="600"
        height="500"
        fill="none"
        stroke="#78909c"
        stroke-linecap="round"
        stroke-linejoin="round"
        stroke-width="13">
<g transform="translate(65, 2813) scale(1 1) rotate(150 145 125)">
            
          </g>
<g transform="translate(0, 2925) scale(1 1) rotate(90 145 125)">
            <path d="M.037 249.12 144.037 0l.293.212L288.075 249.48l-.33.148L0 249.48M59.968 145.44l168.193.143m-24.006-41.629-84.22 145.588m48.055.024-83.973-145.73" />
          </g>
<g transform="translate(65, 3033) scale(1 1) rotate(30 145 125)">
            <path d="M.037 249.12 144.037 0l.293.212L288.075 249.48l-.33.148L0 249.48" /><g ><path d="m47.899 166.32 96.138-79.127 96.082 79.127"/><path d="m192.107 83.061 20.456 122.822L95.996 249.53"/><path d="M192.107 249.579 75.512 205.883 95.996 83.111"/></g>
          </g>
<g transform="translate(257, 2046) scale(1 1) rotate(270 145 125)">
            
          </g>
<g transform="translate(193, 2157) scale(1 1) rotate(330 145 125)">
            <path d="M.037 249.12 144.037 0l.293.212L288.075 249.48l-.33.148L0 249.48" /><g ><path d="m47.899 166.32 96.138-79.127 96.082 79.127"/><path d="m192.107 83.061 20.456 122.822L95.996 249.53"/><path d="M192.107 249.579 75.512 205.883 95.996 83.111"/></g>
          </g>
<g transform="translate(320, 2375) scale(1 1) rotate(150 145 125)">
            <path d="M.037 249.12 144.037 0l.293.212L288.075 249.48l-.33.148L0 249.48m78.472-45.355 65.565-37.805m.043-75.684-.043 75.684m65.523 37.879-65.523-37.879M91.666 90.603l104.828.067m39.302 68.153-52.472 90.751m-78.674-.04-52.356-90.818M99.99 76.203l88.2.067m55.915 96.962-44.159 76.35m-111.928-.057-44.043-76.418" />
          </g>
<g transform="translate(255, 2487) scale(1 1) rotate(90 145 125)">
            <g ><path d="M.037 249.12 144.037 0l.293.212L288.075 249.48l-.33.148L0 249.48"/><path d="m144.037 166.32-60.776 40.222 60.62 37.764m.312 0 60.62-37.764-60.776-40.222"/><path d="m53.642 156.384 29.62 50.158-66.87 14.283 56.139 28.692m143.013 0 56.138-28.692-66.869-14.283 29.62-50.158M144.33.212l-.458 249.342"/></g>
          </g>
<g transform="translate(320, 2595) scale(1 1) rotate(30 145 125)">
            <g ><path d="M.037 249.12 144.037 0l.293.212L288.075 249.48l-.33.148L0 249.48"/><path d="m144.037 166.32-60.776 40.222 60.62 37.764m.312 0 60.62-37.764-60.776-40.222"/><path d="m53.642 156.384 29.62 50.158-66.87 14.283 56.139 28.692m143.013 0 56.138-28.692-66.869-14.283 29.62-50.158M144.33.212l-.458 249.342"/></g>
          </g>
<g transform="translate(192, 2810) scale(1 1) rotate(210 145 125)">
            <g ><path d="M.037 249.12 144.037 0l.293.212L288.075 249.48l-.33.148L0 249.48"/><path d="m144.037 166.32-60.776 40.222 60.62 37.764m.312 0 60.62-37.764-60.776-40.222"/><path d="m53.642 156.384 29.62 50.158-66.87 14.283 56.139 28.692m143.013 0 56.138-28.692-66.869-14.283 29.62-50.158M144.33.212l-.458 249.342"/></g>
          </g>
<g transform="translate(257, 2922) scale(1 1) rotate(270 145 125)">
            <g ><path d="M.037 249.12 144.037 0l.293.212L288.075 249.48l-.33.148L0 249.48"/><path d="m144.037 166.32-60.776 40.222 60.62 37.764m.312 0 60.62-37.764-60.776-40.222"/><path d="m53.642 156.384 29.62 50.158-66.87 14.283 56.139 28.692m143.013 0 56.138-28.692-66.869-14.283 29.62-50.158M144.33.212l-.458 249.342"/></g>
          </g>
<g transform="translate(193, 3033) scale(1 1) rotate(330 145 125)">
            <g ><path d="M.037 249.12 144.037 0l.293.212L288.075 249.48l-.33.148L0 249.48"/><path d="m144.037 166.32-60.776 40.222 60.62 37.764m.312 0 60.62-37.764-60.776-40.222"/><path d="m53.642 156.384 29.62 50.158-66.87 14.283 56.139 28.692m143.013 0 56.138-28.692-66.869-14.283 29.62-50.158M144.33.212l-.458 249.342"/></g>
          </g>
<g transform="translate(447, 1496) scale(1 1) rotate(210 145 125)">
            
          </g>
<g transform="translate(512, 1608) scale(1 1) rotate(270 145 125)">
            <path d="M.037 249.12 144.037 0l.293.212L288.075 249.48l-.33.148L0 249.48M59.968 145.44l168.193.143m-24.006-41.629-84.22 145.588m48.055.024-83.973-145.73" />
          </g>
<g transform="translate(448, 1719) scale(1 1) rotate(330 145 125)">
            <path d="M.037 249.12 144.037 0l.293.212L288.075 249.48l-.33.148L0 249.48" /><g ><path d="m47.899 166.32 96.138-79.127 96.082 79.127"/><path d="m192.107 83.061 20.456 122.822L95.996 249.53"/><path d="M192.107 249.579 75.512 205.883 95.996 83.111"/></g>
          </g>
<g transform="translate(575, 1937) scale(1 1) rotate(150 145 125)">
            <path d="M.037 249.12 144.037 0l.293.212L288.075 249.48l-.33.148L0 249.48m78.472-45.355 65.565-37.805m.043-75.684-.043 75.684m65.523 37.879-65.523-37.879M91.666 90.603l104.828.067m39.302 68.153-52.472 90.751m-78.674-.04-52.356-90.818M99.99 76.203l88.2.067m55.915 96.962-44.159 76.35m-111.928-.057-44.043-76.418" />
          </g>
<g transform="translate(510, 2049) scale(1 1) rotate(90 145 125)">
            <g ><path d="M.037 249.12 144.037 0l.293.212L288.075 249.48l-.33.148L0 249.48"/><path d="m144.037 166.32-60.776 40.222 60.62 37.764m.312 0 60.62-37.764-60.776-40.222"/><path d="m53.642 156.384 29.62 50.158-66.87 14.283 56.139 28.692m143.013 0 56.138-28.692-66.869-14.283 29.62-50.158M144.33.212l-.458 249.342"/></g>
          </g>
<g transform="translate(575, 2157) scale(1 1) rotate(30 145 125)">
            <g ><path d="M.037 249.12 144.037 0l.293.212L288.075 249.48l-.33.148L0 249.48"/><path d="m144.037 166.32-60.776 40.222 60.62 37.764m.312 0 60.62-37.764-60.776-40.222"/><path d="m53.642 156.384 29.62 50.158-66.87 14.283 56.139 28.692m143.013 0 56.138-28.692-66.869-14.283 29.62-50.158M144.33.212l-.458 249.342"/></g>
          </g>
<g transform="translate(447, 2372) scale(1 1) rotate(210 145 125)">
            <g ><path d="M.037 249.12 144.037 0l.293.212L288.075 249.48l-.33.148L0 249.48"/><path d="m144.037 166.32-60.776 40.222 60.62 37.764m.312 0 60.62-37.764-60.776-40.222"/><path d="m53.642 156.384 29.62 50.158-66.87 14.283 56.139 28.692m143.013 0 56.138-28.692-66.869-14.283 29.62-50.158M144.33.212l-.458 249.342"/></g>
          </g>
<g transform="translate(512, 2484) scale(1 1) rotate(270 145 125)">
            <g ><path d="M.037 249.12 144.037 0l.293.212L288.075 249.48l-.33.148L0 249.48"/><path d="m144.037 166.32-60.776 40.222 60.62 37.764m.312 0 60.62-37.764-60.776-40.222"/><path d="m53.642 156.384 29.62 50.158-66.87 14.283 56.139 28.692m143.013 0 56.138-28.692-66.869-14.283 29.62-50.158M144.33.212l-.458 249.342"/></g>
          </g>
<g transform="translate(448, 2595) scale(1 1) rotate(330 145 125)">
            <g ><path d="M.037 249.12 144.037 0l.293.212L288.075 249.48l-.33.148L0 249.48"/><path d="m144.037 166.32-60.776 40.222 60.62 37.764m.312 0 60.62-37.764-60.776-40.222"/><path d="m53.642 156.384 29.62 50.158-66.87 14.283 56.139 28.692m143.013 0 56.138-28.692-66.869-14.283 29.62-50.158M144.33.212l-.458 249.342"/></g>
          </g>
<g transform="translate(575, 2813) scale(1 1) rotate(150 145 125)">
            <g ><path d="M.037 249.12 144.037 0l.293.212L288.075 249.48l-.33.148L0 249.48"/><path d="m144.037 166.32-60.776 40.222 60.62 37.764m.312 0 60.62-37.764-60.776-40.222"/><path d="m53.642 156.384 29.62 50.158-66.87 14.283 56.139 28.692m143.013 0 56.138-28.692-66.869-14.283 29.62-50.158M144.33.212l-.458 249.342"/></g>
          </g>
<g transform="translate(510, 2925) scale(1 1) rotate(90 145 125)">
            <g ><path d="M.037 249.12 144.037 0l.293.212L288.075 249.48l-.33.148L0 249.48"/><path d="m144.037 166.32-60.776 40.222 60.62 37.764m.312 0 60.62-37.764-60.776-40.222"/><path d="m53.642 156.384 29.62 50.158-66.87 14.283 56.139 28.692m143.013 0 56.138-28.692-66.869-14.283 29.62-50.158M144.33.212l-.458 249.342"/></g>
          </g>
<g transform="translate(575, 3033) scale(1 1) rotate(30 145 125)">
            <g ><path d="M.037 249.12 144.037 0l.293.212L288.075 249.48l-.33.148L0 249.48"/><path d="m144.037 166.32-60.776 40.222 60.62 37.764m.312 0 60.62-37.764-60.776-40.222"/><path d="m53.642 156.384 29.62 50.158-66.87 14.283 56.139 28.692m143.013 0 56.138-28.692-66.869-14.283 29.62-50.158M144.33.212l-.458 249.342"/></g>
          </g>
<g transform="translate(830, 623) scale(1 1) rotate(150 145 125)">
            
          </g>
<g transform="translate(765, 735) scale(1 1) rotate(90 145 125)">
            <path d="M.037 249.12 144.037 0l.293.212L288.075 249.48l-.33.148L0 249.48M59.968 145.44l168.193.143m-24.006-41.629-84.22 145.588m48.055.024-83.973-145.73" />
          </g>
<g transform="translate(830, 843) scale(1 1) rotate(30 145 125)">
            <path d="M.037 249.12 144.037 0l.293.212L288.075 249.48l-.33.148L0 249.48" /><g ><path d="m47.899 166.32 96.138-79.127 96.082 79.127"/><path d="m192.107 83.061 20.456 122.822L95.996 249.53"/><path d="M192.107 249.579 75.512 205.883 95.996 83.111"/></g>
          </g>
<g transform="translate(702, 1058) scale(1 1) rotate(210 145 125)">
            <path d="M.037 249.12 144.037 0l.293.212L288.075 249.48l-.33.148L0 249.48" /><path d="M0 249.48c96.025-53.878 192.05-52.865 288.075 0M144.037 0C142.684 110.099 93.795 192.753 0 249.48m288.075 0C193.403 193.259 146.267 109.593 144.037 0" />
          </g>
<g transform="translate(767, 1170) scale(1 1) rotate(270 145 125)">
            <g ><path d="M.037 249.12 144.037 0l.293.212L288.075 249.48l-.33.148L0 249.48"/><path d="m144.037 166.32-60.776 40.222 60.62 37.764m.312 0 60.62-37.764-60.776-40.222"/><path d="m53.642 156.384 29.62 50.158-66.87 14.283 56.139 28.692m143.013 0 56.138-28.692-66.869-14.283 29.62-50.158M144.33.212l-.458 249.342"/></g>
          </g>
<g transform="translate(703, 1281) scale(1 1) rotate(330 145 125)">
            <g ><path d="M.037 249.12 144.037 0l.293.212L288.075 249.48l-.33.148L0 249.48"/><path d="m144.037 166.32-60.776 40.222 60.62 37.764m.312 0 60.62-37.764-60.776-40.222"/><path d="m53.642 156.384 29.62 50.158-66.87 14.283 56.139 28.692m143.013 0 56.138-28.692-66.869-14.283 29.62-50.158M144.33.212l-.458 249.342"/></g>
          </g>
<g transform="translate(830, 1499) scale(1 1) rotate(150 145 125)">
            <g ><path d="M.037 249.12 144.037 0l.293.212L288.075 249.48l-.33.148L0 249.48"/><path d="m144.037 166.32-60.776 40.222 60.62 37.764m.312 0 60.62-37.764-60.776-40.222"/><path d="m53.642 156.384 29.62 50.158-66.87 14.283 56.139 28.692m143.013 0 56.138-28.692-66.869-14.283 29.62-50.158M144.33.212l-.458 249.342"/></g>
          </g>
<g transform="translate(765, 1611) scale(1 1) rotate(90 145 125)">
            <g ><path d="M.037 249.12 144.037 0l.293.212L288.075 249.48l-.33.148L0 249.48"/><path d="m144.037 166.32-60.776 40.222 60.62 37.764m.312 0 60.62-37.764-60.776-40.222"/><path d="m53.642 156.384 29.62 50.158-66.87 14.283 56.139 28.692m143.013 0 56.138-28.692-66.869-14.283 29.62-50.158M144.33.212l-.458 249.342"/></g>
          </g>
<g transform="translate(830, 1719) scale(1 1) rotate(30 145 125)">
            <g ><path d="M.037 249.12 144.037 0l.293.212L288.075 249.48l-.33.148L0 249.48"/><path d="m144.037 166.32-60.776 40.222 60.62 37.764m.312 0 60.62-37.764-60.776-40.222"/><path d="m53.642 156.384 29.62 50.158-66.87 14.283 56.139 28.692m143.013 0 56.138-28.692-66.869-14.283 29.62-50.158M144.33.212l-.458 249.342"/></g>
          </g>
<g transform="translate(702, 1934) scale(1 1) rotate(210 145 125)">
            <g ><path d="M.037 249.12 144.037 0l.293.212L288.075 249.48l-.33.148L0 249.48"/><path d="m144.037 166.32-60.776 40.222 60.62 37.764m.312 0 60.62-37.764-60.776-40.222"/><path d="m53.642 156.384 29.62 50.158-66.87 14.283 56.139 28.692m143.013 0 56.138-28.692-66.869-14.283 29.62-50.158M144.33.212l-.458 249.342"/></g>
          </g>
<g transform="translate(767, 2046) scale(1 1) rotate(270 145 125)">
            <g ><path d="M.037 249.12 144.037 0l.293.212L288.075 249.48l-.33.148L0 249.48"/><path d="m144.037 166.32-60.776 40.222 60.62 37.764m.312 0 60.62-37.764-60.776-40.222"/><path d="m53.642 156.384 29.62 50.158-66.87 14.283 56.139 28.692m143.013 0 56.138-28.692-66.869-14.283 29.62-50.158M144.33.212l-.458 249.342"/></g>
          </g>
<g transform="translate(703, 2157) scale(1 1) rotate(330 145 125)">
            <g ><path d="M.037 249.12 144.037 0l.293.212L288.075 249.48l-.33.148L0 249.48"/><path d="m144.037 166.32-60.776 40.222 60.62 37.764m.312 0 60.62-37.764-60.776-40.222"/><path d="m53.642 156.384 29.62 50.158-66.87 14.283 56.139 28.692m143.013 0 56.138-28.692-66.869-14.283 29.62-50.158M144.33.212l-.458 249.342"/></g>
          </g>
<g transform="translate(830, 2375) scale(1 1) rotate(150 145 125)">
            <g ><path d="M.037 249.12 144.037 0l.293.212L288.075 249.48l-.33.148L0 249.48"/><path d="m144.037 166.32-60.776 40.222 60.62 37.764m.312 0 60.62-37.764-60.776-40.222"/><path d="m53.642 156.384 29.62 50.158-66.87 14.283 56.139 28.692m143.013 0 56.138-28.692-66.869-14.283 29.62-50.158M144.33.212l-.458 249.342"/></g>
          </g>
<g transform="translate(765, 2487) scale(1 1) rotate(90 145 125)">
            <g ><path d="M.037 249.12 144.037 0l.293.212L288.075 249.48l-.33.148L0 249.48"/><path d="m144.037 166.32-60.776 40.222 60.62 37.764m.312 0 60.62-37.764-60.776-40.222"/><path d="m53.642 156.384 29.62 50.158-66.87 14.283 56.139 28.692m143.013 0 56.138-28.692-66.869-14.283 29.62-50.158M144.33.212l-.458 249.342"/></g>
          </g>
<g transform="translate(830, 2595) scale(1 1) rotate(30 145 125)">
            <g ><path d="M.037 249.12 144.037 0l.293.212L288.075 249.48l-.33.148L0 249.48"/><path d="m144.037 166.32-60.776 40.222 60.62 37.764m.312 0 60.62-37.764-60.776-40.222"/><path d="m53.642 156.384 29.62 50.158-66.87 14.283 56.139 28.692m143.013 0 56.138-28.692-66.869-14.283 29.62-50.158M144.33.212l-.458 249.342"/></g>
          </g>
<g transform="translate(702, 2810) scale(1 1) rotate(210 145 125)">
            <path d="M.037 249.12 144.037 0l.293.212L288.075 249.48l-.33.148L0 249.48m78.472-45.355 65.565-37.805m.043-75.684-.043 75.684m65.523 37.879-65.523-37.879M91.666 90.603l104.828.067m39.302 68.153-52.472 90.751m-78.674-.04-52.356-90.818M99.99 76.203l88.2.067m55.915 96.962-44.159 76.35m-111.928-.057-44.043-76.418" />
          </g>
<g transform="translate(767, 2922) scale(1 1) rotate(270 145 125)">
            <path d="M.037 249.12 144.037 0l.293.212L288.075 249.48l-.33.148L0 249.48" /><g ><path d="m47.899 166.32 96.138-79.127 96.082 79.127"/><path d="m192.107 83.061 20.456 122.822L95.996 249.53"/><path d="M192.107 249.579 75.512 205.883 95.996 83.111"/></g>
          </g>
<g transform="translate(703, 3033) scale(1 1) rotate(330 145 125)">
            <path d="M.037 249.12 144.037 0l.293.212L288.075 249.48l-.33.148L0 249.48M59.968 145.44l168.193.143m-24.006-41.629-84.22 145.588m48.055.024-83.973-145.73" />
          </g>
<g transform="translate(958, -33) scale(1 1) rotate(330 145 125)">
            
          </g>
<g transform="translate(1085, 185) scale(1 1) rotate(150 145 125)">
            
          </g>
<g transform="translate(1020, 297) scale(1 1) rotate(90 145 125)">
            <path d="M.037 249.12 144.037 0l.293.212L288.075 249.48l-.33.148L0 249.48M59.968 145.44l168.193.143m-24.006-41.629-84.22 145.588m48.055.024-83.973-145.73" />
          </g>
<g transform="translate(1085, 405) scale(1 1) rotate(30 145 125)">
            <path d="M.037 249.12 144.037 0l.293.212L288.075 249.48l-.33.148L0 249.48" /><g ><path d="m47.899 166.32 96.138-79.127 96.082 79.127"/><path d="m192.107 83.061 20.456 122.822L95.996 249.53"/><path d="M192.107 249.579 75.512 205.883 95.996 83.111"/></g>
          </g>
<g transform="translate(957, 620) scale(1 1) rotate(210 145 125)">
            <path d="M.037 249.12 144.037 0l.293.212L288.075 249.48l-.33.148L0 249.48" /><path d="M0 249.48c96.025-53.878 192.05-52.865 288.075 0M144.037 0C142.684 110.099 93.795 192.753 0 249.48m288.075 0C193.403 193.259 146.267 109.593 144.037 0" />
          </g>
<g transform="translate(1022, 732) scale(1 1) rotate(270 145 125)">
            <g ><path d="M.037 249.12 144.037 0l.293.212L288.075 249.48l-.33.148L0 249.48"/><path d="m144.037 166.32-60.776 40.222 60.62 37.764m.312 0 60.62-37.764-60.776-40.222"/><path d="m53.642 156.384 29.62 50.158-66.87 14.283 56.139 28.692m143.013 0 56.138-28.692-66.869-14.283 29.62-50.158M144.33.212l-.458 249.342"/></g>
          </g>
<g transform="translate(958, 843) scale(1 1) rotate(330 145 125)">
            <g ><path d="M.037 249.12 144.037 0l.293.212L288.075 249.48l-.33.148L0 249.48"/><path d="m144.037 166.32-60.776 40.222 60.62 37.764m.312 0 60.62-37.764-60.776-40.222"/><path d="m53.642 156.384 29.62 50.158-66.87 14.283 56.139 28.692m143.013 0 56.138-28.692-66.869-14.283 29.62-50.158M144.33.212l-.458 249.342"/></g>
          </g>
<g transform="translate(1085, 1061) scale(1 1) rotate(150 145 125)">
            <g ><path d="M.037 249.12 144.037 0l.293.212L288.075 249.48l-.33.148L0 249.48"/><path d="m144.037 166.32-60.776 40.222 60.62 37.764m.312 0 60.62-37.764-60.776-40.222"/><path d="m53.642 156.384 29.62 50.158-66.87 14.283 56.139 28.692m143.013 0 56.138-28.692-66.869-14.283 29.62-50.158M144.33.212l-.458 249.342"/></g>
          </g>
<g transform="translate(1020, 1173) scale(1 1) rotate(90 145 125)">
            <g ><path d="M.037 249.12 144.037 0l.293.212L288.075 249.48l-.33.148L0 249.48"/><path d="m144.037 166.32-60.776 40.222 60.62 37.764m.312 0 60.62-37.764-60.776-40.222"/><path d="m53.642 156.384 29.62 50.158-66.87 14.283 56.139 28.692m143.013 0 56.138-28.692-66.869-14.283 29.62-50.158M144.33.212l-.458 249.342"/></g>
          </g>
<g transform="translate(1085, 1281) scale(1 1) rotate(30 145 125)">
            <g ><path d="M.037 249.12 144.037 0l.293.212L288.075 249.48l-.33.148L0 249.48"/><path d="m144.037 166.32-60.776 40.222 60.62 37.764m.312 0 60.62-37.764-60.776-40.222"/><path d="m53.642 156.384 29.62 50.158-66.87 14.283 56.139 28.692m143.013 0 56.138-28.692-66.869-14.283 29.62-50.158M144.33.212l-.458 249.342"/></g>
          </g>
<g transform="translate(957, 1496) scale(1 1) rotate(210 145 125)">
            <g ><path d="M.037 249.12 144.037 0l.293.212L288.075 249.48l-.33.148L0 249.48"/><path d="m144.037 166.32-60.776 40.222 60.62 37.764m.312 0 60.62-37.764-60.776-40.222"/><path d="m53.642 156.384 29.62 50.158-66.87 14.283 56.139 28.692m143.013 0 56.138-28.692-66.869-14.283 29.62-50.158M144.33.212l-.458 249.342"/></g>
          </g>
<g transform="translate(1022, 1608) scale(1 1) rotate(270 145 125)">
            <g ><path d="M.037 249.12 144.037 0l.293.212L288.075 249.48l-.33.148L0 249.48"/><path d="m144.037 166.32-60.776 40.222 60.62 37.764m.312 0 60.62-37.764-60.776-40.222"/><path d="m53.642 156.384 29.62 50.158-66.87 14.283 56.139 28.692m143.013 0 56.138-28.692-66.869-14.283 29.62-50.158M144.33.212l-.458 249.342"/></g>
          </g>
<g transform="translate(958, 1719) scale(1 1) rotate(330 145 125)">
            <g ><path d="M.037 249.12 144.037 0l.293.212L288.075 249.48l-.33.148L0 249.48"/><path d="m144.037 166.32-60.776 40.222 60.62 37.764m.312 0 60.62-37.764-60.776-40.222"/><path d="m53.642 156.384 29.62 50.158-66.87 14.283 56.139 28.692m143.013 0 56.138-28.692-66.869-14.283 29.62-50.158M144.33.212l-.458 249.342"/></g>
          </g>
<g transform="translate(1085, 1937) scale(1 1) rotate(150 145 125)">
            <g ><path d="M.037 249.12 144.037 0l.293.212L288.075 249.48l-.33.148L0 249.48"/><path d="m144.037 166.32-60.776 40.222 60.62 37.764m.312 0 60.62-37.764-60.776-40.222"/><path d="m53.642 156.384 29.62 50.158-66.87 14.283 56.139 28.692m143.013 0 56.138-28.692-66.869-14.283 29.62-50.158M144.33.212l-.458 249.342"/></g>
          </g>
<g transform="translate(1020, 2049) scale(1 1) rotate(90 145 125)">
            <g ><path d="M.037 249.12 144.037 0l.293.212L288.075 249.48l-.33.148L0 249.48"/><path d="m144.037 166.32-60.776 40.222 60.62 37.764m.312 0 60.62-37.764-60.776-40.222"/><path d="m53.642 156.384 29.62 50.158-66.87 14.283 56.139 28.692m143.013 0 56.138-28.692-66.869-14.283 29.62-50.158M144.33.212l-.458 249.342"/></g>
          </g>
<g transform="translate(1085, 2157) scale(1 1) rotate(30 145 125)">
            <g ><path d="M.037 249.12 144.037 0l.293.212L288.075 249.48l-.33.148L0 249.48"/><path d="m144.037 166.32-60.776 40.222 60.62 37.764m.312 0 60.62-37.764-60.776-40.222"/><path d="m53.642 156.384 29.62 50.158-66.87 14.283 56.139 28.692m143.013 0 56.138-28.692-66.869-14.283 29.62-50.158M144.33.212l-.458 249.342"/></g>
          </g>
<g transform="translate(957, 2372) scale(1 1) rotate(210 145 125)">
            <g ><path d="M.037 249.12 144.037 0l.293.212L288.075 249.48l-.33.148L0 249.48"/><path d="m144.037 166.32-60.776 40.222 60.62 37.764m.312 0 60.62-37.764-60.776-40.222"/><path d="m53.642 156.384 29.62 50.158-66.87 14.283 56.139 28.692m143.013 0 56.138-28.692-66.869-14.283 29.62-50.158M144.33.212l-.458 249.342"/></g>
          </g>
<g transform="translate(1022, 2484) scale(1 1) rotate(270 145 125)">
            <g ><path d="M.037 249.12 144.037 0l.293.212L288.075 249.48l-.33.148L0 249.48"/><path d="m144.037 166.32-60.776 40.222 60.62 37.764m.312 0 60.62-37.764-60.776-40.222"/><path d="m53.642 156.384 29.62 50.158-66.87 14.283 56.139 28.692m143.013 0 56.138-28.692-66.869-14.283 29.62-50.158M144.33.212l-.458 249.342"/></g>
          </g>
<g transform="translate(958, 2595) scale(1 1) rotate(330 145 125)">
            <path d="M.037 249.12 144.037 0l.293.212L288.075 249.48l-.33.148L0 249.48M59.968 145.44l168.193.143m-24.006-41.629-84.22 145.588m48.055.024-83.973-145.73" />
          </g>
<g transform="translate(1340, -33) scale(1 1) rotate(30 145 125)">
            <g ><path d="M.037 249.12 144.037 0l.293.212L288.075 249.48l-.33.148L0 249.48"/><path d="m144.037 166.32-60.776 40.222 60.62 37.764m.312 0 60.62-37.764-60.776-40.222"/><path d="m53.642 156.384 29.62 50.158-66.87 14.283 56.139 28.692m143.013 0 56.138-28.692-66.869-14.283 29.62-50.158M144.33.212l-.458 249.342"/></g>
          </g>
<g transform="translate(1212, 182) scale(1 1) rotate(210 145 125)">
            <g ><path d="M.037 249.12 144.037 0l.293.212L288.075 249.48l-.33.148L0 249.48"/><path d="m144.037 166.32-60.776 40.222 60.62 37.764m.312 0 60.62-37.764-60.776-40.222"/><path d="m53.642 156.384 29.62 50.158-66.87 14.283 56.139 28.692m143.013 0 56.138-28.692-66.869-14.283 29.62-50.158M144.33.212l-.458 249.342"/></g>
          </g>
<g transform="translate(1277, 294) scale(1 1) rotate(270 145 125)">
            <g ><path d="M.037 249.12 144.037 0l.293.212L288.075 249.48l-.33.148L0 249.48"/><path d="m144.037 166.32-60.776 40.222 60.62 37.764m.312 0 60.62-37.764-60.776-40.222"/><path d="m53.642 156.384 29.62 50.158-66.87 14.283 56.139 28.692m143.013 0 56.138-28.692-66.869-14.283 29.62-50.158M144.33.212l-.458 249.342"/></g>
          </g>
<g transform="translate(1213, 405) scale(1 1) rotate(330 145 125)">
            <g ><path d="M.037 249.12 144.037 0l.293.212L288.075 249.48l-.33.148L0 249.48"/><path d="m144.037 166.32-60.776 40.222 60.62 37.764m.312 0 60.62-37.764-60.776-40.222"/><path d="m53.642 156.384 29.62 50.158-66.87 14.283 56.139 28.692m143.013 0 56.138-28.692-66.869-14.283 29.62-50.158M144.33.212l-.458 249.342"/></g>
          </g>
<g transform="translate(1340, 623) scale(1 1) rotate(150 145 125)">
            <g ><path d="M.037 249.12 144.037 0l.293.212L288.075 249.48l-.33.148L0 249.48"/><path d="m144.037 166.32-60.776 40.222 60.62 37.764m.312 0 60.62-37.764-60.776-40.222"/><path d="m53.642 156.384 29.62 50.158-66.87 14.283 56.139 28.692m143.013 0 56.138-28.692-66.869-14.283 29.62-50.158M144.33.212l-.458 249.342"/></g>
          </g>
<g transform="translate(1275, 735) scale(1 1) rotate(90 145 125)">
            <g ><path d="M.037 249.12 144.037 0l.293.212L288.075 249.48l-.33.148L0 249.48"/><path d="m144.037 166.32-60.776 40.222 60.62 37.764m.312 0 60.62-37.764-60.776-40.222"/><path d="m53.642 156.384 29.62 50.158-66.87 14.283 56.139 28.692m143.013 0 56.138-28.692-66.869-14.283 29.62-50.158M144.33.212l-.458 249.342"/></g>
          </g>
<g transform="translate(1340, 843) scale(1 1) rotate(30 145 125)">
            <g ><path d="M.037 249.12 144.037 0l.293.212L288.075 249.48l-.33.148L0 249.48"/><path d="m144.037 166.32-60.776 40.222 60.62 37.764m.312 0 60.62-37.764-60.776-40.222"/><path d="m53.642 156.384 29.62 50.158-66.87 14.283 56.139 28.692m143.013 0 56.138-28.692-66.869-14.283 29.62-50.158M144.33.212l-.458 249.342"/></g>
          </g>
<g transform="translate(1212, 1058) scale(1 1) rotate(210 145 125)">
            <g ><path d="M.037 249.12 144.037 0l.293.212L288.075 249.48l-.33.148L0 249.48"/><path d="m144.037 166.32-60.776 40.222 60.62 37.764m.312 0 60.62-37.764-60.776-40.222"/><path d="m53.642 156.384 29.62 50.158-66.87 14.283 56.139 28.692m143.013 0 56.138-28.692-66.869-14.283 29.62-50.158M144.33.212l-.458 249.342"/></g>
          </g>
<g transform="translate(1277, 1170) scale(1 1) rotate(270 145 125)">
            <g ><path d="M.037 249.12 144.037 0l.293.212L288.075 249.48l-.33.148L0 249.48"/><path d="m144.037 166.32-60.776 40.222 60.62 37.764m.312 0 60.62-37.764-60.776-40.222"/><path d="m53.642 156.384 29.62 50.158-66.87 14.283 56.139 28.692m143.013 0 56.138-28.692-66.869-14.283 29.62-50.158M144.33.212l-.458 249.342"/></g>
          </g>
<g transform="translate(1213, 1281) scale(1 1) rotate(330 145 125)">
            <path d="M.037 249.12 144.037 0l.293.212L288.075 249.48l-.33.148L0 249.48" /><path d="M0 249.48c96.025-53.878 192.05-52.865 288.075 0M144.037 0C142.684 110.099 93.795 192.753 0 249.48m288.075 0C193.403 193.259 146.267 109.593 144.037 0" />
          </g>
<g transform="translate(1340, 1499) scale(1 1) rotate(150 145 125)">
            <path d="M.037 249.12 144.037 0l.293.212L288.075 249.48l-.33.148L0 249.48" /><g ><path d="m47.899 166.32 96.138-79.127 96.082 79.127"/><path d="m192.107 83.061 20.456 122.822L95.996 249.53"/><path d="M192.107 249.579 75.512 205.883 95.996 83.111"/></g>
          </g>
<g transform="translate(1275, 1611) scale(1 1) rotate(90 145 125)">
            <path d="M.037 249.12 144.037 0l.293.212L288.075 249.48l-.33.148L0 249.48M59.968 145.44l168.193.143m-24.006-41.629-84.22 145.588m48.055.024-83.973-145.73" />
          </g>
<g transform="translate(1340, 1719) scale(1 1) rotate(30 145 125)">
            
          </g>
<g transform="translate(1212, 1934) scale(1 1) rotate(210 145 125)">
            
          </g>
<g transform="translate(1277, 2046) scale(1 1) rotate(270 145 125)">
            <path d="M.037 249.12 144.037 0l.293.212L288.075 249.48l-.33.148L0 249.48" /><path d="M0 249.48c96.025-53.878 192.05-52.865 288.075 0M144.037 0C142.684 110.099 93.795 192.753 0 249.48m288.075 0C193.403 193.259 146.267 109.593 144.037 0" />
          </g>
<g transform="translate(1213, 2157) scale(1 1) rotate(330 145 125)">
            <g ><path d="M.037 249.12 144.037 0l.293.212L288.075 249.48l-.33.148L0 249.48"/><path d="m144.037 166.32-60.776 40.222 60.62 37.764m.312 0 60.62-37.764-60.776-40.222"/><path d="m53.642 156.384 29.62 50.158-66.87 14.283 56.139 28.692m143.013 0 56.138-28.692-66.869-14.283 29.62-50.158M144.33.212l-.458 249.342"/></g>
          </g>
<g transform="translate(1340, 2375) scale(1 1) rotate(150 145 125)">
            <g ><path d="M.037 249.12 144.037 0l.293.212L288.075 249.48l-.33.148L0 249.48"/><path d="m144.037 166.32-60.776 40.222 60.62 37.764m.312 0 60.62-37.764-60.776-40.222"/><path d="m53.642 156.384 29.62 50.158-66.87 14.283 56.139 28.692m143.013 0 56.138-28.692-66.869-14.283 29.62-50.158M144.33.212l-.458 249.342"/></g>
          </g>
<g transform="translate(1275, 2487) scale(1 1) rotate(90 145 125)">
            <g ><path d="M.037 249.12 144.037 0l.293.212L288.075 249.48l-.33.148L0 249.48"/><path d="m144.037 166.32-60.776 40.222 60.62 37.764m.312 0 60.62-37.764-60.776-40.222"/><path d="m53.642 156.384 29.62 50.158-66.87 14.283 56.139 28.692m143.013 0 56.138-28.692-66.869-14.283 29.62-50.158M144.33.212l-.458 249.342"/></g>
          </g>
<g transform="translate(1340, 2595) scale(1 1) rotate(30 145 125)">
            <path d="M.037 249.12 144.037 0l.293.212L288.075 249.48l-.33.148L0 249.48M59.968 145.44l168.193.143m-24.006-41.629-84.22 145.588m48.055.024-83.973-145.73" />
          </g>
<g transform="translate(1468, -33) scale(1 1) rotate(330 145 125)">
            <g ><path d="M.037 249.12 144.037 0l.293.212L288.075 249.48l-.33.148L0 249.48"/><path d="m144.037 166.32-60.776 40.222 60.62 37.764m.312 0 60.62-37.764-60.776-40.222"/><path d="m53.642 156.384 29.62 50.158-66.87 14.283 56.139 28.692m143.013 0 56.138-28.692-66.869-14.283 29.62-50.158M144.33.212l-.458 249.342"/></g>
          </g>
<g transform="translate(1595, 185) scale(1 1) rotate(150 145 125)">
            <g ><path d="M.037 249.12 144.037 0l.293.212L288.075 249.48l-.33.148L0 249.48"/><path d="m144.037 166.32-60.776 40.222 60.62 37.764m.312 0 60.62-37.764-60.776-40.222"/><path d="m53.642 156.384 29.62 50.158-66.87 14.283 56.139 28.692m143.013 0 56.138-28.692-66.869-14.283 29.62-50.158M144.33.212l-.458 249.342"/></g>
          </g>
<g transform="translate(1530, 297) scale(1 1) rotate(90 145 125)">
            <g ><path d="M.037 249.12 144.037 0l.293.212L288.075 249.48l-.33.148L0 249.48"/><path d="m144.037 166.32-60.776 40.222 60.62 37.764m.312 0 60.62-37.764-60.776-40.222"/><path d="m53.642 156.384 29.62 50.158-66.87 14.283 56.139 28.692m143.013 0 56.138-28.692-66.869-14.283 29.62-50.158M144.33.212l-.458 249.342"/></g>
          </g>
<g transform="translate(1595, 405) scale(1 1) rotate(30 145 125)">
            <g ><path d="M.037 249.12 144.037 0l.293.212L288.075 249.48l-.33.148L0 249.48"/><path d="m144.037 166.32-60.776 40.222 60.62 37.764m.312 0 60.62-37.764-60.776-40.222"/><path d="m53.642 156.384 29.62 50.158-66.87 14.283 56.139 28.692m143.013 0 56.138-28.692-66.869-14.283 29.62-50.158M144.33.212l-.458 249.342"/></g>
          </g>
<g transform="translate(1467, 620) scale(1 1) rotate(210 145 125)">
            <g ><path d="M.037 249.12 144.037 0l.293.212L288.075 249.48l-.33.148L0 249.48"/><path d="m144.037 166.32-60.776 40.222 60.62 37.764m.312 0 60.62-37.764-60.776-40.222"/><path d="m53.642 156.384 29.62 50.158-66.87 14.283 56.139 28.692m143.013 0 56.138-28.692-66.869-14.283 29.62-50.158M144.33.212l-.458 249.342"/></g>
          </g>
<g transform="translate(1532, 732) scale(1 1) rotate(270 145 125)">
            <g ><path d="M.037 249.12 144.037 0l.293.212L288.075 249.48l-.33.148L0 249.48"/><path d="m144.037 166.32-60.776 40.222 60.62 37.764m.312 0 60.62-37.764-60.776-40.222"/><path d="m53.642 156.384 29.62 50.158-66.87 14.283 56.139 28.692m143.013 0 56.138-28.692-66.869-14.283 29.62-50.158M144.33.212l-.458 249.342"/></g>
          </g>
<g transform="translate(1468, 843) scale(1 1) rotate(330 145 125)">
            <path d="M.037 249.12 144.037 0l.293.212L288.075 249.48l-.33.148L0 249.48m78.472-45.355 65.565-37.805m.043-75.684-.043 75.684m65.523 37.879-65.523-37.879M91.666 90.603l104.828.067m39.302 68.153-52.472 90.751m-78.674-.04-52.356-90.818M99.99 76.203l88.2.067m55.915 96.962-44.159 76.35m-111.928-.057-44.043-76.418" />
          </g>
<g transform="translate(1595, 1061) scale(1 1) rotate(150 145 125)">
            <path d="M.037 249.12 144.037 0l.293.212L288.075 249.48l-.33.148L0 249.48" /><g ><path d="m47.899 166.32 96.138-79.127 96.082 79.127"/><path d="m192.107 83.061 20.456 122.822L95.996 249.53"/><path d="M192.107 249.579 75.512 205.883 95.996 83.111"/></g>
          </g>
<g transform="translate(1530, 1173) scale(1 1) rotate(90 145 125)">
            <path d="M.037 249.12 144.037 0l.293.212L288.075 249.48l-.33.148L0 249.48M59.968 145.44l168.193.143m-24.006-41.629-84.22 145.588m48.055.024-83.973-145.73" />
          </g>
<g transform="translate(1595, 1281) scale(1 1) rotate(30 145 125)">
            
          </g>
<g transform="translate(1595, 1937) scale(1 1) rotate(150 145 125)">
            
          </g>
<g transform="translate(1530, 2049) scale(1 1) rotate(90 145 125)">
            <path d="M.037 249.12 144.037 0l.293.212L288.075 249.48l-.33.148L0 249.48" /><path d="M0 249.48c96.025-53.878 192.05-52.865 288.075 0M144.037 0C142.684 110.099 93.795 192.753 0 249.48m288.075 0C193.403 193.259 146.267 109.593 144.037 0" />
          </g>
<g transform="translate(1595, 2157) scale(1 1) rotate(30 145 125)">
            <g ><path d="M.037 249.12 144.037 0l.293.212L288.075 249.48l-.33.148L0 249.48"/><path d="m144.037 166.32-60.776 40.222 60.62 37.764m.312 0 60.62-37.764-60.776-40.222"/><path d="m53.642 156.384 29.62 50.158-66.87 14.283 56.139 28.692m143.013 0 56.138-28.692-66.869-14.283 29.62-50.158M144.33.212l-.458 249.342"/></g>
          </g>
<g transform="translate(1467, 2372) scale(1 1) rotate(210 145 125)">
            <g ><path d="M.037 249.12 144.037 0l.293.212L288.075 249.48l-.33.148L0 249.48"/><path d="m144.037 166.32-60.776 40.222 60.62 37.764m.312 0 60.62-37.764-60.776-40.222"/><path d="m53.642 156.384 29.62 50.158-66.87 14.283 56.139 28.692m143.013 0 56.138-28.692-66.869-14.283 29.62-50.158M144.33.212l-.458 249.342"/></g>
          </g>
<g transform="translate(1532, 2484) scale(1 1) rotate(270 145 125)">
            <g ><path d="M.037 249.12 144.037 0l.293.212L288.075 249.48l-.33.148L0 249.48"/><path d="m144.037 166.32-60.776 40.222 60.62 37.764m.312 0 60.62-37.764-60.776-40.222"/><path d="m53.642 156.384 29.62 50.158-66.87 14.283 56.139 28.692m143.013 0 56.138-28.692-66.869-14.283 29.62-50.158M144.33.212l-.458 249.342"/></g>
          </g>
<g transform="translate(1468, 2595) scale(1 1) rotate(330 145 125)">
            <path d="M.037 249.12 144.037 0l.293.212L288.075 249.48l-.33.148L0 249.48M59.968 145.44l168.193.143m-24.006-41.629-84.22 145.588m48.055.024-83.973-145.73" />
          </g>
<g transform="translate(1850, -33) scale(1 1) rotate(30 145 125)">
            <g ><path d="M.037 249.12 144.037 0l.293.212L288.075 249.48l-.33.148L0 249.48"/><path d="m144.037 166.32-60.776 40.222 60.62 37.764m.312 0 60.62-37.764-60.776-40.222"/><path d="m53.642 156.384 29.62 50.158-66.87 14.283 56.139 28.692m143.013 0 56.138-28.692-66.869-14.283 29.62-50.158M144.33.212l-.458 249.342"/></g>
          </g>
<g transform="translate(1722, 182) scale(1 1) rotate(210 145 125)">
            <g ><path d="M.037 249.12 144.037 0l.293.212L288.075 249.48l-.33.148L0 249.48"/><path d="m144.037 166.32-60.776 40.222 60.62 37.764m.312 0 60.62-37.764-60.776-40.222"/><path d="m53.642 156.384 29.62 50.158-66.87 14.283 56.139 28.692m143.013 0 56.138-28.692-66.869-14.283 29.62-50.158M144.33.212l-.458 249.342"/></g>
          </g>
<g transform="translate(1787, 294) scale(1 1) rotate(270 145 125)">
            <g ><path d="M.037 249.12 144.037 0l.293.212L288.075 249.48l-.33.148L0 249.48"/><path d="m144.037 166.32-60.776 40.222 60.62 37.764m.312 0 60.62-37.764-60.776-40.222"/><path d="m53.642 156.384 29.62 50.158-66.87 14.283 56.139 28.692m143.013 0 56.138-28.692-66.869-14.283 29.62-50.158M144.33.212l-.458 249.342"/></g>
          </g>
<g transform="translate(1723, 405) scale(1 1) rotate(330 145 125)">
            <g ><path d="M.037 249.12 144.037 0l.293.212L288.075 249.48l-.33.148L0 249.48"/><path d="m144.037 166.32-60.776 40.222 60.62 37.764m.312 0 60.62-37.764-60.776-40.222"/><path d="m53.642 156.384 29.62 50.158-66.87 14.283 56.139 28.692m143.013 0 56.138-28.692-66.869-14.283 29.62-50.158M144.33.212l-.458 249.342"/></g>
          </g>
<g transform="translate(1850, 623) scale(1 1) rotate(150 145 125)">
            <g ><path d="M.037 249.12 144.037 0l.293.212L288.075 249.48l-.33.148L0 249.48"/><path d="m144.037 166.32-60.776 40.222 60.62 37.764m.312 0 60.62-37.764-60.776-40.222"/><path d="m53.642 156.384 29.62 50.158-66.87 14.283 56.139 28.692m143.013 0 56.138-28.692-66.869-14.283 29.62-50.158M144.33.212l-.458 249.342"/></g>
          </g>
<g transform="translate(1785, 735) scale(1 1) rotate(90 145 125)">
            <g ><path d="M.037 249.12 144.037 0l.293.212L288.075 249.48l-.33.148L0 249.48"/><path d="m144.037 166.32-60.776 40.222 60.62 37.764m.312 0 60.62-37.764-60.776-40.222"/><path d="m53.642 156.384 29.62 50.158-66.87 14.283 56.139 28.692m143.013 0 56.138-28.692-66.869-14.283 29.62-50.158M144.33.212l-.458 249.342"/></g>
          </g>
<g transform="translate(1850, 843) scale(1 1) rotate(30 145 125)">
            <g ><path d="M.037 249.12 144.037 0l.293.212L288.075 249.48l-.33.148L0 249.48"/><path d="m144.037 166.32-60.776 40.222 60.62 37.764m.312 0 60.62-37.764-60.776-40.222"/><path d="m53.642 156.384 29.62 50.158-66.87 14.283 56.139 28.692m143.013 0 56.138-28.692-66.869-14.283 29.62-50.158M144.33.212l-.458 249.342"/></g>
          </g>
<g transform="translate(1722, 1058) scale(1 1) rotate(210 145 125)">
            <g ><path d="M.037 249.12 144.037 0l.293.212L288.075 249.48l-.33.148L0 249.48"/><path d="m144.037 166.32-60.776 40.222 60.62 37.764m.312 0 60.62-37.764-60.776-40.222"/><path d="m53.642 156.384 29.62 50.158-66.87 14.283 56.139 28.692m143.013 0 56.138-28.692-66.869-14.283 29.62-50.158M144.33.212l-.458 249.342"/></g>
          </g>
<g transform="translate(1787, 1170) scale(1 1) rotate(270 145 125)">
            <path d="M.037 249.12 144.037 0l.293.212L288.075 249.48l-.33.148L0 249.48" /><path d="M0 249.48c96.025-53.878 192.05-52.865 288.075 0M144.037 0C142.684 110.099 93.795 192.753 0 249.48m288.075 0C193.403 193.259 146.267 109.593 144.037 0" />
          </g>
<g transform="translate(1723, 1281) scale(1 1) rotate(330 145 125)">
            <path d="M.037 249.12 144.037 0l.293.212L288.075 249.48l-.33.148L0 249.48m78.472-45.355 65.565-37.805m.043-75.684-.043 75.684m65.523 37.879-65.523-37.879M91.666 90.603l104.828.067m39.302 68.153-52.472 90.751m-78.674-.04-52.356-90.818M99.99 76.203l88.2.067m55.915 96.962-44.159 76.35m-111.928-.057-44.043-76.418" />
          </g>
<g transform="translate(1850, 1499) scale(1 1) rotate(150 145 125)">
            <path d="M.037 249.12 144.037 0l.293.212L288.075 249.48l-.33.148L0 249.48" /><g ><path d="m47.899 166.32 96.138-79.127 96.082 79.127"/><path d="m192.107 83.061 20.456 122.822L95.996 249.53"/><path d="M192.107 249.579 75.512 205.883 95.996 83.111"/></g>
          </g>
<g transform="translate(1785, 1611) scale(1 1) rotate(90 145 125)">
            <path d="M.037 249.12 144.037 0l.293.212L288.075 249.48l-.33.148L0 249.48M59.968 145.44l168.193.143m-24.006-41.629-84.22 145.588m48.055.024-83.973-145.73" />
          </g>
<g transform="translate(1850, 1719) scale(1 1) rotate(30 145 125)">
            
          </g>
<g transform="translate(1722, 1934) scale(1 1) rotate(210 145 125)">
            
          </g>
<g transform="translate(1787, 2046) scale(1 1) rotate(270 145 125)">
            <path d="M.037 249.12 144.037 0l.293.212L288.075 249.48l-.33.148L0 249.48" /><path d="M0 249.48c96.025-53.878 192.05-52.865 288.075 0M144.037 0C142.684 110.099 93.795 192.753 0 249.48m288.075 0C193.403 193.259 146.267 109.593 144.037 0" />
          </g>
<g transform="translate(1723, 2157) scale(1 1) rotate(330 145 125)">
            <g ><path d="M.037 249.12 144.037 0l.293.212L288.075 249.48l-.33.148L0 249.48"/><path d="m144.037 166.32-60.776 40.222 60.62 37.764m.312 0 60.62-37.764-60.776-40.222"/><path d="m53.642 156.384 29.62 50.158-66.87 14.283 56.139 28.692m143.013 0 56.138-28.692-66.869-14.283 29.62-50.158M144.33.212l-.458 249.342"/></g>
          </g>
<g transform="translate(1850, 2375) scale(1 1) rotate(150 145 125)">
            <g ><path d="M.037 249.12 144.037 0l.293.212L288.075 249.48l-.33.148L0 249.48"/><path d="m144.037 166.32-60.776 40.222 60.62 37.764m.312 0 60.62-37.764-60.776-40.222"/><path d="m53.642 156.384 29.62 50.158-66.87 14.283 56.139 28.692m143.013 0 56.138-28.692-66.869-14.283 29.62-50.158M144.33.212l-.458 249.342"/></g>
          </g>
<g transform="translate(1785, 2487) scale(1 1) rotate(90 145 125)">
            <g ><path d="M.037 249.12 144.037 0l.293.212L288.075 249.48l-.33.148L0 249.48"/><path d="m144.037 166.32-60.776 40.222 60.62 37.764m.312 0 60.62-37.764-60.776-40.222"/><path d="m53.642 156.384 29.62 50.158-66.87 14.283 56.139 28.692m143.013 0 56.138-28.692-66.869-14.283 29.62-50.158M144.33.212l-.458 249.342"/></g>
          </g>
<g transform="translate(1850, 2595) scale(1 1) rotate(30 145 125)">
            <path d="M.037 249.12 144.037 0l.293.212L288.075 249.48l-.33.148L0 249.48M59.968 145.44l168.193.143m-24.006-41.629-84.22 145.588m48.055.024-83.973-145.73" />
          </g>
<g transform="translate(1978, -33) scale(1 1) rotate(330 145 125)">
            <path d="M.037 249.12 144.037 0l.293.212L288.075 249.48l-.33.148L0 249.48m78.472-45.355 65.565-37.805m.043-75.684-.043 75.684m65.523 37.879-65.523-37.879M91.666 90.603l104.828.067m39.302 68.153-52.472 90.751m-78.674-.04-52.356-90.818M99.99 76.203l88.2.067m55.915 96.962-44.159 76.35m-111.928-.057-44.043-76.418" />
          </g>
<g transform="translate(2105, 185) scale(1 1) rotate(150 145 125)">
            <g ><path d="M.037 249.12 144.037 0l.293.212L288.075 249.48l-.33.148L0 249.48"/><path d="m144.037 166.32-60.776 40.222 60.62 37.764m.312 0 60.62-37.764-60.776-40.222"/><path d="m53.642 156.384 29.62 50.158-66.87 14.283 56.139 28.692m143.013 0 56.138-28.692-66.869-14.283 29.62-50.158M144.33.212l-.458 249.342"/></g>
          </g>
<g transform="translate(2040, 297) scale(1 1) rotate(90 145 125)">
            <g ><path d="M.037 249.12 144.037 0l.293.212L288.075 249.48l-.33.148L0 249.48"/><path d="m144.037 166.32-60.776 40.222 60.62 37.764m.312 0 60.62-37.764-60.776-40.222"/><path d="m53.642 156.384 29.62 50.158-66.87 14.283 56.139 28.692m143.013 0 56.138-28.692-66.869-14.283 29.62-50.158M144.33.212l-.458 249.342"/></g>
          </g>
<g transform="translate(2105, 405) scale(1 1) rotate(30 145 125)">
            <g ><path d="M.037 249.12 144.037 0l.293.212L288.075 249.48l-.33.148L0 249.48"/><path d="m144.037 166.32-60.776 40.222 60.62 37.764m.312 0 60.62-37.764-60.776-40.222"/><path d="m53.642 156.384 29.62 50.158-66.87 14.283 56.139 28.692m143.013 0 56.138-28.692-66.869-14.283 29.62-50.158M144.33.212l-.458 249.342"/></g>
          </g>
<g transform="translate(1977, 620) scale(1 1) rotate(210 145 125)">
            <g ><path d="M.037 249.12 144.037 0l.293.212L288.075 249.48l-.33.148L0 249.48"/><path d="m144.037 166.32-60.776 40.222 60.62 37.764m.312 0 60.62-37.764-60.776-40.222"/><path d="m53.642 156.384 29.62 50.158-66.87 14.283 56.139 28.692m143.013 0 56.138-28.692-66.869-14.283 29.62-50.158M144.33.212l-.458 249.342"/></g>
          </g>
<g transform="translate(2042, 732) scale(1 1) rotate(270 145 125)">
            <g ><path d="M.037 249.12 144.037 0l.293.212L288.075 249.48l-.33.148L0 249.48"/><path d="m144.037 166.32-60.776 40.222 60.62 37.764m.312 0 60.62-37.764-60.776-40.222"/><path d="m53.642 156.384 29.62 50.158-66.87 14.283 56.139 28.692m143.013 0 56.138-28.692-66.869-14.283 29.62-50.158M144.33.212l-.458 249.342"/></g>
          </g>
<g transform="translate(1978, 843) scale(1 1) rotate(330 145 125)">
            <g ><path d="M.037 249.12 144.037 0l.293.212L288.075 249.48l-.33.148L0 249.48"/><path d="m144.037 166.32-60.776 40.222 60.62 37.764m.312 0 60.62-37.764-60.776-40.222"/><path d="m53.642 156.384 29.62 50.158-66.87 14.283 56.139 28.692m143.013 0 56.138-28.692-66.869-14.283 29.62-50.158M144.33.212l-.458 249.342"/></g>
          </g>
<g transform="translate(2105, 1061) scale(1 1) rotate(150 145 125)">
            <g ><path d="M.037 249.12 144.037 0l.293.212L288.075 249.48l-.33.148L0 249.48"/><path d="m144.037 166.32-60.776 40.222 60.62 37.764m.312 0 60.62-37.764-60.776-40.222"/><path d="m53.642 156.384 29.62 50.158-66.87 14.283 56.139 28.692m143.013 0 56.138-28.692-66.869-14.283 29.62-50.158M144.33.212l-.458 249.342"/></g>
          </g>
<g transform="translate(2040, 1173) scale(1 1) rotate(90 145 125)">
            <g ><path d="M.037 249.12 144.037 0l.293.212L288.075 249.48l-.33.148L0 249.48"/><path d="m144.037 166.32-60.776 40.222 60.62 37.764m.312 0 60.62-37.764-60.776-40.222"/><path d="m53.642 156.384 29.62 50.158-66.87 14.283 56.139 28.692m143.013 0 56.138-28.692-66.869-14.283 29.62-50.158M144.33.212l-.458 249.342"/></g>
          </g>
<g transform="translate(2105, 1281) scale(1 1) rotate(30 145 125)">
            <g ><path d="M.037 249.12 144.037 0l.293.212L288.075 249.48l-.33.148L0 249.48"/><path d="m144.037 166.32-60.776 40.222 60.62 37.764m.312 0 60.62-37.764-60.776-40.222"/><path d="m53.642 156.384 29.62 50.158-66.87 14.283 56.139 28.692m143.013 0 56.138-28.692-66.869-14.283 29.62-50.158M144.33.212l-.458 249.342"/></g>
          </g>
<g transform="translate(1977, 1496) scale(1 1) rotate(210 145 125)">
            <g ><path d="M.037 249.12 144.037 0l.293.212L288.075 249.48l-.33.148L0 249.48"/><path d="m144.037 166.32-60.776 40.222 60.62 37.764m.312 0 60.62-37.764-60.776-40.222"/><path d="m53.642 156.384 29.62 50.158-66.87 14.283 56.139 28.692m143.013 0 56.138-28.692-66.869-14.283 29.62-50.158M144.33.212l-.458 249.342"/></g>
          </g>
<g transform="translate(2042, 1608) scale(1 1) rotate(270 145 125)">
            <g ><path d="M.037 249.12 144.037 0l.293.212L288.075 249.48l-.33.148L0 249.48"/><path d="m144.037 166.32-60.776 40.222 60.62 37.764m.312 0 60.62-37.764-60.776-40.222"/><path d="m53.642 156.384 29.62 50.158-66.87 14.283 56.139 28.692m143.013 0 56.138-28.692-66.869-14.283 29.62-50.158M144.33.212l-.458 249.342"/></g>
          </g>
<g transform="translate(1978, 1719) scale(1 1) rotate(330 145 125)">
            <path d="M.037 249.12 144.037 0l.293.212L288.075 249.48l-.33.148L0 249.48" /><path d="M0 249.48c96.025-53.878 192.05-52.865 288.075 0M144.037 0C142.684 110.099 93.795 192.753 0 249.48m288.075 0C193.403 193.259 146.267 109.593 144.037 0" />
          </g>
<g transform="translate(2105, 1937) scale(1 1) rotate(150 145 125)">
            <g ><path d="M.037 249.12 144.037 0l.293.212L288.075 249.48l-.33.148L0 249.48"/><path d="M162.874 177.196H125.2l-52.811 30.49m52.811-30.49 18.837-32.627V83.587m0 60.982 18.837 32.627 52.812 30.49"/><path d="m28.367 200.384 56.262.102-28.676 49.023M172.372 49.114l-28.22 48.673-28.116-49.345m115.337 201.02-28.042-48.776 56.792.323"/><path d="m24.047 207.584 48.342.102-24.02 41.819M168.297 41.773l-24.26 41.814-24.205-41.711m119.936 207.727-24.082-41.917 48.226-.107"/></g>
          </g>
<g transform="translate(2040, 2049) scale(1 1) rotate(90 145 125)">
            <path d="M.037 249.12 144.037 0l.293.212L288.075 249.48l-.33.148L0 249.48" /><path d="M0 249.48c96.025-53.878 192.05-52.865 288.075 0M144.037 0C142.684 110.099 93.795 192.753 0 249.48m288.075 0C193.403 193.259 146.267 109.593 144.037 0" />
          </g>
<g transform="translate(2105, 2157) scale(1 1) rotate(30 145 125)">
            <g ><path d="M.037 249.12 144.037 0l.293.212L288.075 249.48l-.33.148L0 249.48"/><path d="m144.037 166.32-60.776 40.222 60.62 37.764m.312 0 60.62-37.764-60.776-40.222"/><path d="m53.642 156.384 29.62 50.158-66.87 14.283 56.139 28.692m143.013 0 56.138-28.692-66.869-14.283 29.62-50.158M144.33.212l-.458 249.342"/></g>
          </g>
<g transform="translate(1977, 2372) scale(1 1) rotate(210 145 125)">
            <g ><path d="M.037 249.12 144.037 0l.293.212L288.075 249.48l-.33.148L0 249.48"/><path d="m144.037 166.32-60.776 40.222 60.62 37.764m.312 0 60.62-37.764-60.776-40.222"/><path d="m53.642 156.384 29.62 50.158-66.87 14.283 56.139 28.692m143.013 0 56.138-28.692-66.869-14.283 29.62-50.158M144.33.212l-.458 249.342"/></g>
          </g>
<g transform="translate(2042, 2484) scale(1 1) rotate(270 145 125)">
            <g ><path d="M.037 249.12 144.037 0l.293.212L288.075 249.48l-.33.148L0 249.48"/><path d="m144.037 166.32-60.776 40.222 60.62 37.764m.312 0 60.62-37.764-60.776-40.222"/><path d="m53.642 156.384 29.62 50.158-66.87 14.283 56.139 28.692m143.013 0 56.138-28.692-66.869-14.283 29.62-50.158M144.33.212l-.458 249.342"/></g>
          </g>
<g transform="translate(1978, 2595) scale(1 1) rotate(330 145 125)">
            <path d="M.037 249.12 144.037 0l.293.212L288.075 249.48l-.33.148L0 249.48M59.968 145.44l168.193.143m-24.006-41.629-84.22 145.588m48.055.024-83.973-145.73" />
          </g>
<g transform="translate(2233, 405) scale(1 1) rotate(330 145 125)">
            
          </g>
<g transform="translate(2360, 623) scale(1 1) rotate(150 145 125)">
            <path d="M.037 249.12 144.037 0l.293.212L288.075 249.48l-.33.148L0 249.48M59.968 145.44l168.193.143m-24.006-41.629-84.22 145.588m48.055.024-83.973-145.73" />
          </g>
<g transform="translate(2295, 735) scale(1 1) rotate(90 145 125)">
            <path d="M.037 249.12 144.037 0l.293.212L288.075 249.48l-.33.148L0 249.48" /><g ><path d="M195.877 249.589v-53.34M46.004 169.58l46.193 26.67M190.23 79.79l-46.193 26.67M92.197 196.25v53.269m51.84-143.059L97.905 79.826m97.972 116.424 46.133-26.635M92.197 196.25l51.84-29.93m0-59.86v59.86m51.84 29.93-51.84-29.93"/></g>
          </g>
<g transform="translate(2360, 843) scale(1 1) rotate(30 145 125)">
            <path d="M.037 249.12 144.037 0l.293.212L288.075 249.48l-.33.148L0 249.48m78.472-45.355 65.565-37.805m.043-75.684-.043 75.684m65.523 37.879-65.523-37.879M91.666 90.603l104.828.067m39.302 68.153-52.472 90.751m-78.674-.04-52.356-90.818M99.99 76.203l88.2.067m55.915 96.962-44.159 76.35m-111.928-.057-44.043-76.418" />
          </g>
<g transform="translate(2232, 1058) scale(1 1) rotate(210 145 125)">
            <g ><path d="M.037 249.12 144.037 0l.293.212L288.075 249.48l-.33.148L0 249.48"/><path d="m144.037 166.32-60.776 40.222 60.62 37.764m.312 0 60.62-37.764-60.776-40.222"/><path d="m53.642 156.384 29.62 50.158-66.87 14.283 56.139 28.692m143.013 0 56.138-28.692-66.869-14.283 29.62-50.158M144.33.212l-.458 249.342"/></g>
          </g>
<g transform="translate(2297, 1170) scale(1 1) rotate(270 145 125)">
            <g ><path d="M.037 249.12 144.037 0l.293.212L288.075 249.48l-.33.148L0 249.48"/><path d="m144.037 166.32-60.776 40.222 60.62 37.764m.312 0 60.62-37.764-60.776-40.222"/><path d="m53.642 156.384 29.62 50.158-66.87 14.283 56.139 28.692m143.013 0 56.138-28.692-66.869-14.283 29.62-50.158M144.33.212l-.458 249.342"/></g>
          </g>
<g transform="translate(2233, 1281) scale(1 1) rotate(330 145 125)">
            <g ><path d="M.037 249.12 144.037 0l.293.212L288.075 249.48l-.33.148L0 249.48"/><path d="m144.037 166.32-60.776 40.222 60.62 37.764m.312 0 60.62-37.764-60.776-40.222"/><path d="m53.642 156.384 29.62 50.158-66.87 14.283 56.139 28.692m143.013 0 56.138-28.692-66.869-14.283 29.62-50.158M144.33.212l-.458 249.342"/></g>
          </g>
<g transform="translate(2360, 1499) scale(1 1) rotate(150 145 125)">
            <g ><path d="M.037 249.12 144.037 0l.293.212L288.075 249.48l-.33.148L0 249.48"/><path d="m144.037 166.32-60.776 40.222 60.62 37.764m.312 0 60.62-37.764-60.776-40.222"/><path d="m53.642 156.384 29.62 50.158-66.87 14.283 56.139 28.692m143.013 0 56.138-28.692-66.869-14.283 29.62-50.158M144.33.212l-.458 249.342"/></g>
          </g>
<g transform="translate(2295, 1611) scale(1 1) rotate(90 145 125)">
            <g ><path d="M.037 249.12 144.037 0l.293.212L288.075 249.48l-.33.148L0 249.48"/><path d="m144.037 166.32-60.776 40.222 60.62 37.764m.312 0 60.62-37.764-60.776-40.222"/><path d="m53.642 156.384 29.62 50.158-66.87 14.283 56.139 28.692m143.013 0 56.138-28.692-66.869-14.283 29.62-50.158M144.33.212l-.458 249.342"/></g>
          </g>
<g transform="translate(2360, 1719) scale(1 1) rotate(30 145 125)">
            <g ><path d="M.037 249.12 144.037 0l.293.212L288.075 249.48l-.33.148L0 249.48"/><path d="m144.037 166.32-60.776 40.222 60.62 37.764m.312 0 60.62-37.764-60.776-40.222"/><path d="m53.642 156.384 29.62 50.158-66.87 14.283 56.139 28.692m143.013 0 56.138-28.692-66.869-14.283 29.62-50.158M144.33.212l-.458 249.342"/></g>
          </g>
<g transform="translate(2232, 1934) scale(1 1) rotate(210 145 125)">
            <g ><path d="M.037 249.12 144.037 0l.293.212L288.075 249.48l-.33.148L0 249.48"/><path d="m144.037 166.32-60.776 40.222 60.62 37.764m.312 0 60.62-37.764-60.776-40.222"/><path d="m53.642 156.384 29.62 50.158-66.87 14.283 56.139 28.692m143.013 0 56.138-28.692-66.869-14.283 29.62-50.158M144.33.212l-.458 249.342"/></g>
          </g>
<g transform="translate(2297, 2046) scale(1 1) rotate(270 145 125)">
            <g ><path d="M.037 249.12 144.037 0l.293.212L288.075 249.48l-.33.148L0 249.48"/><path d="m144.037 166.32-60.776 40.222 60.62 37.764m.312 0 60.62-37.764-60.776-40.222"/><path d="m53.642 156.384 29.62 50.158-66.87 14.283 56.139 28.692m143.013 0 56.138-28.692-66.869-14.283 29.62-50.158M144.33.212l-.458 249.342"/></g>
          </g>
<g transform="translate(2233, 2157) scale(1 1) rotate(330 145 125)">
            <g ><path d="M.037 249.12 144.037 0l.293.212L288.075 249.48l-.33.148L0 249.48"/><path d="m144.037 166.32-60.776 40.222 60.62 37.764m.312 0 60.62-37.764-60.776-40.222"/><path d="m53.642 156.384 29.62 50.158-66.87 14.283 56.139 28.692m143.013 0 56.138-28.692-66.869-14.283 29.62-50.158M144.33.212l-.458 249.342"/></g>
          </g>
<g transform="translate(2360, 2375) scale(1 1) rotate(150 145 125)">
            <g ><path d="M.037 249.12 144.037 0l.293.212L288.075 249.48l-.33.148L0 249.48"/><path d="m144.037 166.32-60.776 40.222 60.62 37.764m.312 0 60.62-37.764-60.776-40.222"/><path d="m53.642 156.384 29.62 50.158-66.87 14.283 56.139 28.692m143.013 0 56.138-28.692-66.869-14.283 29.62-50.158M144.33.212l-.458 249.342"/></g>
          </g>
<g transform="translate(2295, 2487) scale(1 1) rotate(90 145 125)">
            <g ><path d="M.037 249.12 144.037 0l.293.212L288.075 249.48l-.33.148L0 249.48"/><path d="m144.037 166.32-60.776 40.222 60.62 37.764m.312 0 60.62-37.764-60.776-40.222"/><path d="m53.642 156.384 29.62 50.158-66.87 14.283 56.139 28.692m143.013 0 56.138-28.692-66.869-14.283 29.62-50.158M144.33.212l-.458 249.342"/></g>
          </g>
<g transform="translate(2360, 2595) scale(1 1) rotate(30 145 125)">
            <path d="M.037 249.12 144.037 0l.293.212L288.075 249.48l-.33.148L0 249.48" /><path d="M0 249.48c96.025-53.878 192.05-52.865 288.075 0M144.037 0C142.684 110.099 93.795 192.753 0 249.48m288.075 0C193.403 193.259 146.267 109.593 144.037 0" />
          </g>
<g transform="translate(2232, 2810) scale(1 1) rotate(210 145 125)">
            <path d="M.037 249.12 144.037 0l.293.212L288.075 249.48l-.33.148L0 249.48m78.472-45.355 65.565-37.805m.043-75.684-.043 75.684m65.523 37.879-65.523-37.879M91.666 90.603l104.828.067m39.302 68.153-52.472 90.751m-78.674-.04-52.356-90.818M99.99 76.203l88.2.067m55.915 96.962-44.159 76.35m-111.928-.057-44.043-76.418" />
          </g>
<g transform="translate(2297, 2922) scale(1 1) rotate(270 145 125)">
            <path d="M.037 249.12 144.037 0l.293.212L288.075 249.48l-.33.148L0 249.48" /><g ><path d="m47.899 166.32 96.138-79.127 96.082 79.127"/><path d="m192.107 83.061 20.456 122.822L95.996 249.53"/><path d="M192.107 249.579 75.512 205.883 95.996 83.111"/></g>
          </g>
<g transform="translate(2233, 3033) scale(1 1) rotate(330 145 125)">
            <path d="M.037 249.12 144.037 0l.293.212L288.075 249.48l-.33.148L0 249.48M59.968 145.44l168.193.143m-24.006-41.629-84.22 145.588m48.055.024-83.973-145.73" />
          </g>
<g transform="translate(2615, 1061) scale(1 1) rotate(150 145 125)">
            
          </g>
<g transform="translate(2550, 1173) scale(1 1) rotate(90 145 125)">
            <path d="M.037 249.12 144.037 0l.293.212L288.075 249.48l-.33.148L0 249.48" /><g ><path d="M195.877 249.589v-53.34M46.004 169.58l46.193 26.67M190.23 79.79l-46.193 26.67M92.197 196.25v53.269m51.84-143.059L97.905 79.826m97.972 116.424 46.133-26.635M92.197 196.25l51.84-29.93m0-59.86v59.86m51.84 29.93-51.84-29.93"/></g>
          </g>
<g transform="translate(2615, 1281) scale(1 1) rotate(30 145 125)">
            <g ><path d="M.037 249.12 144.037 0l.293.212L288.075 249.48l-.33.148L0 249.48"/><path d="M162.874 177.196H125.2l-52.811 30.49m52.811-30.49 18.837-32.627V83.587m0 60.982 18.837 32.627 52.812 30.49"/><path d="m28.367 200.384 56.262.102-28.676 49.023M172.372 49.114l-28.22 48.673-28.116-49.345m115.337 201.02-28.042-48.776 56.792.323"/><path d="m24.047 207.584 48.342.102-24.02 41.819M168.297 41.773l-24.26 41.814-24.205-41.711m119.936 207.727-24.082-41.917 48.226-.107"/></g>
          </g>
<g transform="translate(2487, 1496) scale(1 1) rotate(210 145 125)">
            <path d="M.037 249.12 144.037 0l.293.212L288.075 249.48l-.33.148L0 249.48" /><path d="M0 249.48c96.025-53.878 192.05-52.865 288.075 0M144.037 0C142.684 110.099 93.795 192.753 0 249.48m288.075 0C193.403 193.259 146.267 109.593 144.037 0" />
          </g>
<g transform="translate(2552, 1608) scale(1 1) rotate(270 145 125)">
            <g ><path d="M.037 249.12 144.037 0l.293.212L288.075 249.48l-.33.148L0 249.48"/><path d="m144.037 166.32-60.776 40.222 60.62 37.764m.312 0 60.62-37.764-60.776-40.222"/><path d="m53.642 156.384 29.62 50.158-66.87 14.283 56.139 28.692m143.013 0 56.138-28.692-66.869-14.283 29.62-50.158M144.33.212l-.458 249.342"/></g>
          </g>
<g transform="translate(2488, 1719) scale(1 1) rotate(330 145 125)">
            <g ><path d="M.037 249.12 144.037 0l.293.212L288.075 249.48l-.33.148L0 249.48"/><path d="m144.037 166.32-60.776 40.222 60.62 37.764m.312 0 60.62-37.764-60.776-40.222"/><path d="m53.642 156.384 29.62 50.158-66.87 14.283 56.139 28.692m143.013 0 56.138-28.692-66.869-14.283 29.62-50.158M144.33.212l-.458 249.342"/></g>
          </g>
<g transform="translate(2615, 1937) scale(1 1) rotate(150 145 125)">
            <g ><path d="M.037 249.12 144.037 0l.293.212L288.075 249.48l-.33.148L0 249.48"/><path d="m144.037 166.32-60.776 40.222 60.62 37.764m.312 0 60.62-37.764-60.776-40.222"/><path d="m53.642 156.384 29.62 50.158-66.87 14.283 56.139 28.692m143.013 0 56.138-28.692-66.869-14.283 29.62-50.158M144.33.212l-.458 249.342"/></g>
          </g>
<g transform="translate(2550, 2049) scale(1 1) rotate(90 145 125)">
            <g ><path d="M.037 249.12 144.037 0l.293.212L288.075 249.48l-.33.148L0 249.48"/><path d="m144.037 166.32-60.776 40.222 60.62 37.764m.312 0 60.62-37.764-60.776-40.222"/><path d="m53.642 156.384 29.62 50.158-66.87 14.283 56.139 28.692m143.013 0 56.138-28.692-66.869-14.283 29.62-50.158M144.33.212l-.458 249.342"/></g>
          </g>
<g transform="translate(2615, 2157) scale(1 1) rotate(30 145 125)">
            <g ><path d="M.037 249.12 144.037 0l.293.212L288.075 249.48l-.33.148L0 249.48"/><path d="m144.037 166.32-60.776 40.222 60.62 37.764m.312 0 60.62-37.764-60.776-40.222"/><path d="m53.642 156.384 29.62 50.158-66.87 14.283 56.139 28.692m143.013 0 56.138-28.692-66.869-14.283 29.62-50.158M144.33.212l-.458 249.342"/></g>
          </g>
<g transform="translate(2487, 2372) scale(1 1) rotate(210 145 125)">
            <g ><path d="M.037 249.12 144.037 0l.293.212L288.075 249.48l-.33.148L0 249.48"/><path d="m144.037 166.32-60.776 40.222 60.62 37.764m.312 0 60.62-37.764-60.776-40.222"/><path d="m53.642 156.384 29.62 50.158-66.87 14.283 56.139 28.692m143.013 0 56.138-28.692-66.869-14.283 29.62-50.158M144.33.212l-.458 249.342"/></g>
          </g>
<g transform="translate(2552, 2484) scale(1 1) rotate(270 145 125)">
            <g ><path d="M.037 249.12 144.037 0l.293.212L288.075 249.48l-.33.148L0 249.48"/><path d="m144.037 166.32-60.776 40.222 60.62 37.764m.312 0 60.62-37.764-60.776-40.222"/><path d="m53.642 156.384 29.62 50.158-66.87 14.283 56.139 28.692m143.013 0 56.138-28.692-66.869-14.283 29.62-50.158M144.33.212l-.458 249.342"/></g>
          </g>
<g transform="translate(2488, 2595) scale(1 1) rotate(330 145 125)">
            <g ><path d="M.037 249.12 144.037 0l.293.212L288.075 249.48l-.33.148L0 249.48"/><path d="m144.037 166.32-60.776 40.222 60.62 37.764m.312 0 60.62-37.764-60.776-40.222"/><path d="m53.642 156.384 29.62 50.158-66.87 14.283 56.139 28.692m143.013 0 56.138-28.692-66.869-14.283 29.62-50.158M144.33.212l-.458 249.342"/></g>
          </g>
<g transform="translate(2615, 2813) scale(1 1) rotate(150 145 125)">
            <g ><path d="M.037 249.12 144.037 0l.293.212L288.075 249.48l-.33.148L0 249.48"/><path d="m144.037 166.32-60.776 40.222 60.62 37.764m.312 0 60.62-37.764-60.776-40.222"/><path d="m53.642 156.384 29.62 50.158-66.87 14.283 56.139 28.692m143.013 0 56.138-28.692-66.869-14.283 29.62-50.158M144.33.212l-.458 249.342"/></g>
          </g>
<g transform="translate(2550, 2925) scale(1 1) rotate(90 145 125)">
            <g ><path d="M.037 249.12 144.037 0l.293.212L288.075 249.48l-.33.148L0 249.48"/><path d="m144.037 166.32-60.776 40.222 60.62 37.764m.312 0 60.62-37.764-60.776-40.222"/><path d="m53.642 156.384 29.62 50.158-66.87 14.283 56.139 28.692m143.013 0 56.138-28.692-66.869-14.283 29.62-50.158M144.33.212l-.458 249.342"/></g>
          </g>
<g transform="translate(2615, 3033) scale(1 1) rotate(30 145 125)">
            <g ><path d="M.037 249.12 144.037 0l.293.212L288.075 249.48l-.33.148L0 249.48"/><path d="m144.037 166.32-60.776 40.222 60.62 37.764m.312 0 60.62-37.764-60.776-40.222"/><path d="m53.642 156.384 29.62 50.158-66.87 14.283 56.139 28.692m143.013 0 56.138-28.692-66.869-14.283 29.62-50.158M144.33.212l-.458 249.342"/></g>
          </g>
<g transform="translate(2870, 1719) scale(1 1) rotate(30 145 125)">
            
          </g>
<g transform="translate(2742, 1934) scale(1 1) rotate(210 145 125)">
            
          </g>
<g transform="translate(2807, 2046) scale(1 1) rotate(270 145 125)">
            <path d="M.037 249.12 144.037 0l.293.212L288.075 249.48l-.33.148L0 249.48" /><g ><path d="M195.877 249.589v-53.34M46.004 169.58l46.193 26.67M190.23 79.79l-46.193 26.67M92.197 196.25v53.269m51.84-143.059L97.905 79.826m97.972 116.424 46.133-26.635M92.197 196.25l51.84-29.93m0-59.86v59.86m51.84 29.93-51.84-29.93"/></g>
          </g>
<g transform="translate(2743, 2157) scale(1 1) rotate(330 145 125)">
            <g ><path d="M.037 249.12 144.037 0l.293.212L288.075 249.48l-.33.148L0 249.48"/><path d="M162.874 177.196H125.2l-52.811 30.49m52.811-30.49 18.837-32.627V83.587m0 60.982 18.837 32.627 52.812 30.49"/><path d="m28.367 200.384 56.262.102-28.676 49.023M172.372 49.114l-28.22 48.673-28.116-49.345m115.337 201.02-28.042-48.776 56.792.323"/><path d="m24.047 207.584 48.342.102-24.02 41.819M168.297 41.773l-24.26 41.814-24.205-41.711m119.936 207.727-24.082-41.917 48.226-.107"/></g>
          </g>
<g transform="translate(2870, 2375) scale(1 1) rotate(150 145 125)">
            <path d="M.037 249.12 144.037 0l.293.212L288.075 249.48l-.33.148L0 249.48" /><path d="M0 249.48c96.025-53.878 192.05-52.865 288.075 0M144.037 0C142.684 110.099 93.795 192.753 0 249.48m288.075 0C193.403 193.259 146.267 109.593 144.037 0" />
          </g>
<g transform="translate(2805, 2487) scale(1 1) rotate(90 145 125)">
            <g ><path d="M.037 249.12 144.037 0l.293.212L288.075 249.48l-.33.148L0 249.48"/><path d="m144.037 166.32-60.776 40.222 60.62 37.764m.312 0 60.62-37.764-60.776-40.222"/><path d="m53.642 156.384 29.62 50.158-66.87 14.283 56.139 28.692m143.013 0 56.138-28.692-66.869-14.283 29.62-50.158M144.33.212l-.458 249.342"/></g>
          </g>
<g transform="translate(2870, 2595) scale(1 1) rotate(30 145 125)">
            <g ><path d="M.037 249.12 144.037 0l.293.212L288.075 249.48l-.33.148L0 249.48"/><path d="m144.037 166.32-60.776 40.222 60.62 37.764m.312 0 60.62-37.764-60.776-40.222"/><path d="m53.642 156.384 29.62 50.158-66.87 14.283 56.139 28.692m143.013 0 56.138-28.692-66.869-14.283 29.62-50.158M144.33.212l-.458 249.342"/></g>
          </g>
<g transform="translate(2742, 2810) scale(1 1) rotate(210 145 125)">
            <g ><path d="M.037 249.12 144.037 0l.293.212L288.075 249.48l-.33.148L0 249.48"/><path d="m144.037 166.32-60.776 40.222 60.62 37.764m.312 0 60.62-37.764-60.776-40.222"/><path d="m53.642 156.384 29.62 50.158-66.87 14.283 56.139 28.692m143.013 0 56.138-28.692-66.869-14.283 29.62-50.158M144.33.212l-.458 249.342"/></g>
          </g>
<g transform="translate(2807, 2922) scale(1 1) rotate(270 145 125)">
            <g ><path d="M.037 249.12 144.037 0l.293.212L288.075 249.48l-.33.148L0 249.48"/><path d="m144.037 166.32-60.776 40.222 60.62 37.764m.312 0 60.62-37.764-60.776-40.222"/><path d="m53.642 156.384 29.62 50.158-66.87 14.283 56.139 28.692m143.013 0 56.138-28.692-66.869-14.283 29.62-50.158M144.33.212l-.458 249.342"/></g>
          </g>
<g transform="translate(2743, 3033) scale(1 1) rotate(330 145 125)">
            <g ><path d="M.037 249.12 144.037 0l.293.212L288.075 249.48l-.33.148L0 249.48"/><path d="m144.037 166.32-60.776 40.222 60.62 37.764m.312 0 60.62-37.764-60.776-40.222"/><path d="m53.642 156.384 29.62 50.158-66.87 14.283 56.139 28.692m143.013 0 56.138-28.692-66.869-14.283 29.62-50.158M144.33.212l-.458 249.342"/></g>
          </g>
<g transform="translate(2997, 2372) scale(1 1) rotate(210 145 125)">
            
          </g>
<g transform="translate(3062, 2484) scale(1 1) rotate(270 145 125)">
            <path d="M.037 249.12 144.037 0l.293.212L288.075 249.48l-.33.148L0 249.48M59.968 145.44l168.193.143m-24.006-41.629-84.22 145.588m48.055.024-83.973-145.73" />
          </g>
<g transform="translate(2998, 2595) scale(1 1) rotate(330 145 125)">
            <g ><path d="M.037 249.12 144.037 0l.293.212L288.075 249.48l-.33.148L0 249.48"/><path d="M162.874 177.196H125.2l-52.811 30.49m52.811-30.49 18.837-32.627V83.587m0 60.982 18.837 32.627 52.812 30.49"/><path d="m28.367 200.384 56.262.102-28.676 49.023M172.372 49.114l-28.22 48.673-28.116-49.345m115.337 201.02-28.042-48.776 56.792.323"/><path d="m24.047 207.584 48.342.102-24.02 41.819M168.297 41.773l-24.26 41.814-24.205-41.711m119.936 207.727-24.082-41.917 48.226-.107"/></g>
          </g>
<g transform="translate(3125, 2813) scale(1 1) rotate(150 145 125)">
            <path d="M.037 249.12 144.037 0l.293.212L288.075 249.48l-.33.148L0 249.48" /><path d="M0 249.48c96.025-53.878 192.05-52.865 288.075 0M144.037 0C142.684 110.099 93.795 192.753 0 249.48m288.075 0C193.403 193.259 146.267 109.593 144.037 0" />
          </g>
<g transform="translate(3060, 2925) scale(1 1) rotate(90 145 125)">
            <g ><path d="M.037 249.12 144.037 0l.293.212L288.075 249.48l-.33.148L0 249.48"/><path d="m144.037 166.32-60.776 40.222 60.62 37.764m.312 0 60.62-37.764-60.776-40.222"/><path d="m53.642 156.384 29.62 50.158-66.87 14.283 56.139 28.692m143.013 0 56.138-28.692-66.869-14.283 29.62-50.158M144.33.212l-.458 249.342"/></g>
          </g>
<g transform="translate(3125, 3033) scale(1 1) rotate(30 145 125)">
            <g ><path d="M.037 249.12 144.037 0l.293.212L288.075 249.48l-.33.148L0 249.48"/><path d="m144.037 166.32-60.776 40.222 60.62 37.764m.312 0 60.62-37.764-60.776-40.222"/><path d="m53.642 156.384 29.62 50.158-66.87 14.283 56.139 28.692m143.013 0 56.138-28.692-66.869-14.283 29.62-50.158M144.33.212l-.458 249.342"/></g>
          </g>
</svg>