<?xml version="1.0" standalone="no"?><svg xmlns:xlink="http://www.w3.org/1999/xlink" xmlns="http://www.w3.org/2000/svg" viewBox="0 0 1000 636.3636363636364" preserveAspectRatio="xMaxYMax slice"><g transform="scale(1.443001443001443)"><rect x="0" y="0" width="693" height="441" fill="#ffffff"/><rect x="378" y="63" width="63" height="63" fill="#ffffff"/><rect x="252" y="126" width="63" height="63" fill="#ffffff"/><rect x="252" y="126" width="31.5" height="31.5" fill="#7e90e8"/><rect x="283.5" y="126" width="31.5" height="31.5" fill="#a7b3ef"/><rect x="252" y="157.5" width="31.5" height="31.5" fill="#7b7b86"/><rect x="441" y="126" width="63" height="63" fill="#ffffff"/><rect x="441" y="126" width="31.5" height="31.5" fill="#6a6a77"/><rect x="472.5" y="157.5" width="31.5" height="31.5" fill="#9ba9ed"/><rect x="567" y="126" width="63" height="63" fill="#ffffff"/><rect x="598.5" y="157.5" width="31.5" height="31.5" fill="#90909a"/><rect x="630" y="126" width="63" height="63" fill="#ffffff"/><rect x="63" y="189" width="63" height="63" fill="#ffffff"/><rect x="63" y="189" width="31.5" height="31.5" fill="#4d4d5c"/><rect x="94.5" y="189" width="31.5" height="31.5" fill="#d9d9dd"/><rect x="378" y="189" width="63" height="63" fill="#ffffff"/><rect x="378" y="220.5" width="31.5" height="31.5" fill="#ebebed"/><rect x="409.5" y="220.5" width="31.5" height="31.5" fill="#f2f2f3"/><rect x="441" y="189" width="63" height="63" fill="#ffffff"/><rect x="441" y="220.5" width="31.5" height="31.5" fill="#9b9ba3"/><rect x="472.5" y="220.5" width="31.5" height="31.5" fill="#fafafe"/><rect x="630" y="189" width="63" height="63" fill="#ffffff"/><rect x="661.5" y="220.5" width="31.5" height="31.5" fill="#d2d2d6"/><rect x="0" y="252" width="63" height="63" fill="#ffffff"/><rect x="0" y="252" width="31.5" height="31.5" fill="#7c8ee8"/><rect x="31.5" y="283.5" width="31.5" height="31.5" fill="#7b8de8"/><rect x="63" y="252" width="63" height="63" fill="#ffffff"/><rect x="63" y="252" width="31.5" height="31.5" fill="#c2caf4"/><rect x="94.5" y="252" width="31.5" height="31.5" fill="#eef0fc"/><rect x="63" y="283.5" width="31.5" height="31.5" fill="#f3f3f4"/><rect x="94.5" y="283.5" width="31.5" height="31.5" fill="#ececed"/><rect x="126" y="252" width="63" height="63" fill="#ffffff"/><rect x="126" y="252" width="31.5" height="31.5" fill="#d9d9dc"/><rect x="157.5" y="252" width="31.5" height="31.5" fill="#666673"/><rect x="157.5" y="283.5" width="31.5" height="31.5" fill="#c1c1c6"/><rect x="189" y="252" width="63" height="63" fill="#ffffff"/><rect x="220.5" y="252" width="31.5" height="31.5" fill="#d7d7da"/><rect x="189" y="283.5" width="31.5" height="31.5" fill="#8f8f99"/><rect x="252" y="252" width="63" height="63" fill="#ffffff"/><rect x="252" y="252" width="31.5" height="31.5" fill="#7e90e8"/><rect x="283.5" y="252" width="31.5" height="31.5" fill="#e8e8ea"/><rect x="283.5" y="283.5" width="31.5" height="31.5" fill="#676774"/><rect x="315" y="252" width="63" height="63" fill="#ffffff"/><rect x="315" y="252" width="31.5" height="31.5" fill="#bdc6f3"/><rect x="346.5" y="252" width="31.5" height="31.5" fill="#8b8b95"/><rect x="315" y="283.5" width="31.5" height="31.5" fill="#7286e6"/><rect x="346.5" y="283.5" width="31.5" height="31.5" fill="#9f9fa7"/><rect x="378" y="252" width="63" height="63" fill="#ffffff"/><rect x="409.5" y="252" width="31.5" height="31.5" fill="#4b4b5b"/><rect x="378" y="283.5" width="31.5" height="31.5" fill="#f9fafe"/><rect x="441" y="252" width="63" height="63" fill="#ffffff"/><rect x="441" y="252" width="31.5" height="31.5" fill="#7e8fe8"/><rect x="441" y="283.5" width="31.5" height="31.5" fill="#9aa8ed"/><rect x="472.5" y="283.5" width="31.5" height="31.5" fill="#d0d0d4"/><rect x="504" y="252" width="63" height="63" fill="#ffffff"/><rect x="535.5" y="252" width="31.5" height="31.5" fill="#b7c1f2"/><rect x="504" y="283.5" width="31.5" height="31.5" fill="#d8def8"/><rect x="567" y="252" width="63" height="63" fill="#ffffff"/><rect x="598.5" y="252" width="31.5" height="31.5" fill="#545462"/><rect x="630" y="252" width="63" height="63" fill="#ffffff"/><rect x="630" y="252" width="31.5" height="31.5" fill="#93939c"/><rect x="630" y="283.5" width="31.5" height="31.5" fill="#7286e6"/><rect x="661.5" y="283.5" width="31.5" height="31.5" fill="#5c5c6a"/><rect x="0" y="315" width="63" height="63" fill="#ffffff"/><rect x="0" y="315" width="31.5" height="31.5" fill="#bfbfc5"/><rect x="31.5" y="346.5" width="31.5" height="31.5" fill="#e1e1e4"/><rect x="126" y="315" width="63" height="63" fill="#ffffff"/><rect x="126" y="315" width="31.5" height="31.5" fill="#686875"/><rect x="157.5" y="315" width="31.5" height="31.5" fill="#6f82e5"/><rect x="126" y="346.5" width="31.5" height="31.5" fill="#7d8fe8"/><rect x="157.5" y="346.5" width="31.5" height="31.5" fill="#474757"/><rect x="189" y="315" width="63" height="63" fill="#ffffff"/><rect x="189" y="315" width="31.5" height="31.5" fill="#a1a1a9"/><rect x="220.5" y="315" width="31.5" height="31.5" fill="#fdfdfd"/><rect x="189" y="346.5" width="31.5" height="31.5" fill="#c2c2c7"/><rect x="220.5" y="346.5" width="31.5" height="31.5" fill="#8c8c96"/><rect x="378" y="315" width="63" height="63" fill="#ffffff"/><rect x="378" y="315" width="31.5" height="31.5" fill="#6b80e5"/><rect x="409.5" y="315" width="31.5" height="31.5" fill="#f1f1f2"/><rect x="378" y="346.5" width="31.5" height="31.5" fill="#8697ea"/><rect x="409.5" y="346.5" width="31.5" height="31.5" fill="#7f91e8"/><rect x="441" y="315" width="63" height="63" fill="#ffffff"/><rect x="441" y="315" width="31.5" height="31.5" fill="#515160"/><rect x="472.5" y="315" width="31.5" height="31.5" fill="#92929c"/><rect x="441" y="346.5" width="31.5" height="31.5" fill="#777782"/><rect x="472.5" y="346.5" width="31.5" height="31.5" fill="#ccccd1"/><rect x="504" y="315" width="63" height="63" fill="#ffffff"/><rect x="504" y="315" width="31.5" height="31.5" fill="#94949e"/><rect x="535.5" y="315" width="31.5" height="31.5" fill="#7b7b86"/><rect x="504" y="346.5" width="31.5" height="31.5" fill="#7084e6"/><rect x="535.5" y="346.5" width="31.5" height="31.5" fill="#eef0fc"/><rect x="630" y="315" width="63" height="63" fill="#ffffff"/><rect x="630" y="315" width="31.5" height="31.5" fill="#dce1f9"/><rect x="661.5" y="315" width="31.5" height="31.5" fill="#9898a1"/><rect x="630" y="346.5" width="31.5" height="31.5" fill="#6e6e7b"/><rect x="661.5" y="346.5" width="31.5" height="31.5" fill="#dce1f9"/><rect x="0" y="378" width="63" height="63" fill="#ffffff"/><rect x="0" y="378" width="31.5" height="31.5" fill="#84848f"/><rect x="31.5" y="378" width="31.5" height="31.5" fill="#93a2ec"/><rect x="0" y="409.5" width="31.5" height="31.5" fill="#aab6f0"/><rect x="31.5" y="409.5" width="31.5" height="31.5" fill="#9b9ba3"/><rect x="63" y="378" width="63" height="63" fill="#ffffff"/><rect x="63" y="378" width="31.5" height="31.5" fill="#bbc4f3"/><rect x="94.5" y="378" width="31.5" height="31.5" fill="#fbfbfe"/><rect x="63" y="409.5" width="31.5" height="31.5" fill="#8d9deb"/><rect x="94.5" y="409.5" width="31.5" height="31.5" fill="#bec7f3"/><rect x="126" y="378" width="63" height="63" fill="#ffffff"/><rect x="126" y="378" width="31.5" height="31.5" fill="#6f6f7b"/><rect x="157.5" y="378" width="31.5" height="31.5" fill="#d6dbf8"/><rect x="126" y="409.5" width="31.5" height="31.5" fill="#c3cbf4"/><rect x="157.5" y="409.5" width="31.5" height="31.5" fill="#747480"/><rect x="189" y="378" width="63" height="63" fill="#ffffff"/><rect x="189" y="378" width="31.5" height="31.5" fill="#91919a"/><rect x="220.5" y="378" width="31.5" height="31.5" fill="#acb7f0"/><rect x="189" y="409.5" width="31.5" height="31.5" fill="#83838e"/><rect x="220.5" y="409.5" width="31.5" height="31.5" fill="#909099"/><rect x="252" y="378" width="63" height="63" fill="#ffffff"/><rect x="252" y="378" width="31.5" height="31.5" fill="#778ae7"/><rect x="283.5" y="378" width="31.5" height="31.5" fill="#a3a3ab"/><rect x="252" y="409.5" width="31.5" height="31.5" fill="#ebebec"/><rect x="283.5" y="409.5" width="31.5" height="31.5" fill="#6b6b78"/><rect x="315" y="378" width="63" height="63" fill="#ffffff"/><rect x="315" y="378" width="31.5" height="31.5" fill="#7386e6"/><rect x="346.5" y="378" width="31.5" height="31.5" fill="#6b6b78"/><rect x="315" y="409.5" width="31.5" height="31.5" fill="#f2f2f3"/><rect x="346.5" y="409.5" width="31.5" height="31.5" fill="#83838e"/><rect x="378" y="378" width="63" height="63" fill="#ffffff"/><rect x="378" y="378" width="31.5" height="31.5" fill="#cad2f6"/><rect x="409.5" y="378" width="31.5" height="31.5" fill="#f4f6fd"/><rect x="378" y="409.5" width="31.5" height="31.5" fill="#adadb4"/><rect x="409.5" y="409.5" width="31.5" height="31.5" fill="#dfdfe2"/><rect x="441" y="378" width="63" height="63" fill="#ffffff"/><rect x="441" y="378" width="31.5" height="31.5" fill="#7286e6"/><rect x="472.5" y="378" width="31.5" height="31.5" fill="#c4c4c9"/><rect x="441" y="409.5" width="31.5" height="31.5" fill="#878791"/><rect x="472.5" y="409.5" width="31.5" height="31.5" fill="#f3f5fd"/><rect x="504" y="378" width="63" height="63" fill="#ffffff"/><rect x="504" y="378" width="31.5" height="31.5" fill="#fdfeff"/><rect x="535.5" y="378" width="31.5" height="31.5" fill="#b6b6bc"/><rect x="504" y="409.5" width="31.5" height="31.5" fill="#ededef"/><rect x="535.5" y="409.5" width="31.5" height="31.5" fill="#bdc6f3"/><rect x="567" y="378" width="63" height="63" fill="#ffffff"/><rect x="567" y="378" width="31.5" height="31.5" fill="#a7b3ef"/><rect x="598.5" y="378" width="31.5" height="31.5" fill="#fefefe"/><rect x="567" y="409.5" width="31.5" height="31.5" fill="#535361"/><rect x="598.5" y="409.5" width="31.5" height="31.5" fill="#484858"/><rect x="630" y="378" width="63" height="63" fill="#ffffff"/><rect x="630" y="378" width="31.5" height="31.5" fill="#a7a7af"/><rect x="661.5" y="378" width="31.5" height="31.5" fill="#f0f0f2"/><rect x="630" y="409.5" width="31.5" height="31.5" fill="#dce1f9"/><rect x="661.5" y="409.5" width="31.5" height="31.5" fill="#c0c8f4"/></g></svg>